<?xml version="1.0" encoding="UTF-8" standalone="no"?>
<svg
   width="64"
   height="64"
   version="1.1"
   id="svg1"
   sodipodi:docname="archlinux-icon.svg"
   inkscape:version="1.4.1 (93de688d07, 2025-03-30)"
   xmlns:inkscape="http://www.inkscape.org/namespaces/inkscape"
   xmlns:sodipodi="http://sodipodi.sourceforge.net/DTD/sodipodi-0.dtd"
   xmlns="http://www.w3.org/2000/svg"
   xmlns:svg="http://www.w3.org/2000/svg">
  <defs
     id="defs1" />
  <sodipodi:namedview
     id="namedview1"
     pagecolor="#505050"
     bordercolor="#ffffff"
     borderopacity="1"
     inkscape:showpageshadow="0"
     inkscape:pageopacity="0"
     inkscape:pagecheckerboard="1"
     inkscape:deskcolor="#505050"
     inkscape:zoom="15.046875"
     inkscape:cx="32"
     inkscape:cy="32.033229"
     inkscape:window-width="3420"
     inkscape:window-height="1374"
     inkscape:window-x="0"
     inkscape:window-y="0"
     inkscape:window-maximized="1"
     inkscape:current-layer="svg1" />
  <path
     d="m 31.994,-0.006 c -2.85,6.985 -4.568,11.554 -7.74,18.332 1.945,2.062 4.332,4.462 8.2,7.174 -4.168,-1.715 -7,-3.437 -9.136,-5.224 -4.06,8.47 -10.42,20.538 -23.327,43.73 C 10.145,58.15 18,54.54 25.338,53.16 25.023,51.806 24.844,50.342 24.858,48.815 L 24.87,48.49 c 0.16,-6.5 3.542,-11.498 7.547,-11.158 4.005,0.34 7.118,5.886 6.957,12.386 a 18.36,18.36 0 0 1 -0.409,3.491 c 7.25,1.418 15.03,5.02 25.037,10.797 L 58.582,53.98 c -2.65,-2.053 -5.413,-4.726 -11.05,-7.62 3.875,1.007 6.65,2.168 8.8,3.467 -17.1,-31.84 -18.486,-36.07 -24.35,-49.833 z"
     fill="#89b4fa"
     fill-rule="evenodd"
     id="path1" />
</svg>
