<?xml version="1.0" encoding="UTF-8" standalone="no"?>
<!-- Created with Inkscape (http://www.inkscape.org/) -->

<svg
   version="1.1"
   id="svg1"
   width="2560"
   height="1440"
   viewBox="0 0 2560 1440"
   xmlns="http://www.w3.org/2000/svg"
   xmlns:svg="http://www.w3.org/2000/svg">
  <defs
     id="defs1" />
   <defs>
  <style type="text/css">
    .pink-fill { fill: #9ae5ff; fill-opacity: 1; }
  </style>
   </defs>
  <g
     id="g1">
   <rect
      style="fill:rgb(20,21,31);fill-opacity:1"
      id="rect13"
      width="2558.3315"
      height="1445.5231"
      x="0"
      y="0" />
    <g
       id="g13"
       transform="translate(-200.02476,363.89956)"
       class="pink-fill">
      <path
         style="stroke:none"
         class="pink-fill"
         d="m 1519.2529,176.59764 c 4.2168,3.13289 9.0955,13.81893 14.5268,13.81893 10.6139,0 -4.5039,-20.47331 -9.1986,-22.14201 -8.5081,-3.02409 -25.1542,12.22843 -20.8066,21.05761 4.4197,8.97543 14.1702,-9.62386 15.4784,-12.73453 m -34.6667,5.33333 h 2.6667 c 1.5959,4.38542 10.4456,29.74219 16.5493,26.23047 3.9258,-2.25871 1.3106,-9.81576 0.1647,-12.89714 -3.0767,-8.2736 -11.2209,-27.84497 -23.2418,-21.29524 -7.5695,4.12434 -10.5356,16.32535 -12.6996,23.96191 -6.5842,23.23503 -3.6005,47.9126 -9.1955,70.66667 -3.2478,13.20817 -21.2119,25.66691 -29.6779,36 -15.6904,19.15047 -25.463,39.75488 -30.3457,64 -5.2176,25.90893 2.0911,53.507 7.679,78.66666 2.9754,13.39681 7.7512,28.90511 5.2799,42.66667 -1.6209,9.02572 -4.9453,18.63444 -14.9527,21.02368 -12.042,2.875 -35.011,-11.538 -37.4136,10.97632 -0.277,2.59603 -0.2051,5.45068 0.3796,8 6.8292,29.77482 57.5596,24.44206 73.7068,7.61418 20.1776,-21.02808 12.0917,-49.88591 15.3477,-75.61418 0.8581,-6.78035 16.6352,-17.8894 14.036,-21.88167 -6.9695,-10.70492 -21.6831,10.79231 -22.7901,16.54834 -5.2057,27.06722 7.9651,65.01823 -23.4928,80.64192 -5.2116,2.58846 -10.3239,3.10083 -16,3.73259 -9.2844,1.03336 -19.5504,-0.39632 -26.5226,-7.2181 -4.7156,-4.61393 -8.0247,-12.08984 -0.08,-15.47949 5.8138,-2.48055 13.7579,2.21297 19.9362,2.29834 19.4672,0.2692 25.7374,-15.06486 27.6131,-31.97526 4.2469,-38.28923 -18.2466,-75.45492 -14.0484,-114.66667 2.7719,-25.88973 17.1442,-48.70728 33.6729,-68 8.2651,-9.64714 20.8464,-18.77669 25.9764,-30.66667 4.5508,-10.5476 1.8957,-27.1748 3.0123,-38.66666 1.8549,-19.09164 7.126,-37.07528 14.4403,-54.66667 m 82.6665,45.33333 v -8 c -15.3376,-3.677 -21.6038,-17.66829 -34.6667,-24.77677 -4.1012,-2.23185 -12.3942,-5.48722 -16.9033,-2.86621 -3.7689,2.19075 -2.1679,6.40617 1.1019,8.00716 16.1123,7.88908 31.2675,29.63241 50.4681,27.63582 m -45.1369,-9.2181 c -8.4985,4.19027 -0.4981,19.31202 7.3797,14.48861 6.8079,-4.16821 0.17,-18.21102 -7.3797,-14.48861 m 18.4702,59.88477 c 0.015,22.26164 4,44.35457 4,66.66667 0,15.52986 -0.6796,30.06128 -3.7335,45.33333 -2.8509,14.25627 -6.9667,28.25936 -9.0288,42.66667 -0.4891,3.41618 -2.2945,13.81893 3.5483,13.81893 6.3055,0 5.5431,-11.0162 6.2192,-15.15227 2.7124,-16.59497 7.8483,-32.69319 10.429,-49.33333 3.6071,-23.25781 2.0478,-47.30697 0.4465,-70.66667 -0.7635,-11.13883 -4.0147,-23.50561 -2.5041,-34.64713 1.3855,-10.21875 14.7554,-19.65715 18.037,-30.6862 0.9665,-3.24788 3.1387,-9.34196 -0.2026,-11.93717 -2.8532,-2.21615 -5.6608,0.21907 -6.8797,2.80135 -4.2713,9.04891 -5.9904,17.72339 -13.785,24.85188 -3.3921,3.1023 -13.5997,5.58676 -14.8776,9.99488 -1.4846,5.12134 4.9606,6.03198 8.3313,6.28906 m -74.2685,65.56787 c -5.3518,2.611 -3.243,16.36467 -2.6841,21.0988 2.6261,22.24414 7.7572,40.61897 16.1471,61.33333 1.743,4.30355 4.4789,24.50252 11.107,21.78402 7.0013,-2.87167 0.6819,-18.49951 -1.0546,-23.11735 -8.3872,-22.30534 -16.9503,-42.29379 -17.2417,-66.66667 -0.039,-3.2841 1.0306,-17.99569 -6.2737,-14.43213 m 44.4002,31.8807 c -3.6177,2.43888 -2.1317,10.86035 -2.1317,14.55143 v 44 c 0,3.18783 -0.6983,16.33187 6.1142,12.89714 4.679,-2.35922 3.2189,-11.3667 3.2192,-15.56381 9e-4,-15.10986 0.1029,-30.22379 0,-45.33333 -0.022,-3.22559 -0.8913,-14.80493 -7.2006,-10.55143 M 205.01108,453.968 c -6.2832,4.22778 -0.27947,10.09057 4.91461,10.55151 15.74115,1.39665 32.18709,0.0781 47.99383,0.0781 h 180 682.66668 204 50.6667 c 5.1081,0 15.2634,1.89518 19.1893,-2.13786 6.2146,-6.38428 -3.7721,-9.7666 -8.5226,-9.85596 -17.3198,-0.32584 -34.6769,-0.006 -52,-0.006 h -205.3334 -677.33335 -180 -46.66667 c -5.40061,0 -14.88829,-1.78329 -19.5751,1.37036 m 2554.24182,7.96282 v -9.33333 h -992 -232 -54.6667 c -4.9091,0 -15.9267,-1.78907 -16.7119,5.38582 -0.873,7.97811 10.5247,6.61385 15.3786,6.61418 h 54.6667 233.3333 c 330.5555,0 661.7057,4.15201 992,-2.66667 z"
         id="path13" />
    </g>
    <path
       style="stroke-width:0.66459"
       class="pink-fill"
       d="m 2055.5763,829.24918 c -6.2139,-0.12113 -185.8556,-0.43399 -399.2037,-0.69525 l -387.9058,-0.47501 -1.8762,-1.3952 c -1.34,-0.99649 -1.9345,-2.07772 -2.0802,-3.78353 -0.2437,-2.85285 1.3515,-4.76758 4.6469,-5.5777 1.2117,-0.29788 268.446,-0.46468 593.8541,-0.37067 l 591.6511,0.17094 v 4.91272 4.91272 l -8.1412,0.40136 c -19.3939,0.95614 -355.5524,2.58954 -390.945,1.89962 z"
       id="path14" />
    <path
       style="stroke-width:0.66459"
       class="pink-fill"
       d="m 1311.428,810.4287 c -2.2547,-1.31443 -2.5109,-5.08816 -2.5146,-37.0425 v -31.43208 l 1.6312,-1.63126 c 1.9385,-1.93852 3.0997,-2.05092 4.5566,-0.4411 2.2048,2.43635 2.4954,7.21488 2.3057,37.91523 l -0.1862,30.12791 -1.8647,1.60349 c -2.0801,1.78881 -2.3098,1.8415 -3.9243,0.90031 z"
       id="path15" />
    <path
       style="stroke-width:0.66459"
       class="pink-fill"
       d="m 1332.8166,808.78376 c -2.4646,-2.9696 -1.5203,-10.4848 5.0075,-39.85333 5.9946,-26.97023 6.5685,-32.01275 6.5803,-57.81932 0.01,-16.68773 -0.2992,-24.55813 -1.4253,-36.55244 -0.7893,-8.40706 -1.641,-19.22295 -1.8928,-24.03531 l -0.4576,-8.74975 -2.9128,-0.73345 c -3.0627,-0.77118 -5.5456,-2.70808 -5.5456,-4.32605 0,-1.82459 3.0116,-4.31609 8.4638,-7.00208 8.785,-4.32792 11.477,-7.63715 17.3589,-21.33932 4.3627,-10.1631 6.1523,-12.21362 9.0197,-10.33482 2.3763,1.55702 2.7278,3.83681 1.3668,8.8647 -1.5708,5.80321 -3.191,8.70077 -9.8451,17.60758 -8.0838,10.82042 -8.6327,12.07704 -8.9545,20.4977 -0.1737,4.54665 0.2098,10.95486 1.0937,18.27622 1.7351,14.37059 1.9605,17.28487 2.7941,36.11598 1.1956,27.0083 -0.2762,41.976 -7.0001,71.19183 -3.6062,15.66878 -5.2791,24.38999 -6.0002,31.27955 -0.5189,4.9584 -2.3492,7.93125 -4.883,7.93125 -1.0572,0 -2.3027,-0.45852 -2.7678,-1.01894 z"
       id="path16" />
    <path
       style="stroke-width:0.66459"
       class="pink-fill"
       d="m 1287.7752,810.44802 c -2.2044,-2.05368 -3.2297,-4.45582 -5.713,-13.3848 -1.2536,-4.5073 -3.8196,-12.34689 -5.7022,-17.42131 -6.0061,-16.18899 -10.1516,-33.26621 -12.3519,-50.88366 -1.7726,-14.1928 -0.5892,-20.6396 3.8872,-21.17636 3.2258,-0.3868 3.8926,1.8318 4.5076,14.99845 0.9522,20.38719 2.9482,28.18119 16.8856,65.93736 4.7798,12.94852 5.5402,18.8116 2.7956,21.5562 -2.0749,2.07498 -2.4484,2.10741 -4.3089,0.37412 z"
       id="path17" />
    <path
       style="stroke-width:0.66459"
       class="pink-fill"
       d="m 1183.6909,913.77022 c -6.1245,-1.21641 -13.3459,-4.77876 -16.9277,-8.35051 -5.6165,-5.60082 -8.2759,-14.02837 -6.7486,-21.38567 2.0611,-9.92795 7.6271,-12.12868 23.9522,-9.47037 8.0353,1.30844 10.9521,1.29707 14.9296,-0.0582 9.1713,-3.12498 14.1907,-15.08414 13.4538,-32.05482 -0.3762,-8.66458 -0.5871,-9.80219 -7.3736,-39.77303 -8.2232,-36.31524 -9.4351,-52.65987 -5.3444,-72.07738 4.3818,-20.7997 13.5678,-40.71343 26.7711,-58.03531 1.6717,-2.19314 8.5857,-9.66978 15.3645,-16.61474 13.1023,-13.42354 15.5993,-16.91595 17.6201,-24.64396 1.4742,-5.63807 2.824,-17.04007 4.0059,-33.83995 1.2829,-18.2363 2.4013,-25.89929 5.3501,-36.65843 4.0031,-14.60631 8.4168,-21.61964 14.8114,-23.53554 4.0144,-1.20271 7.9338,0.93924 12.1188,6.62288 3.7102,5.03884 8.1451,14.81638 9.3363,20.58369 0.7186,3.47888 0.6811,4.15119 -0.3165,5.67362 -0.6224,0.94989 -1.6919,1.72707 -2.3766,1.72707 -2.8335,0 -8.1304,-8.65806 -12.7059,-20.76843 -1.9043,-5.04029 -2.4054,-5.81516 -3.7608,-5.81516 -1.7621,0 -1.5902,-0.34407 -5.9762,11.96262 -7.4693,20.95805 -9.4772,31.94888 -10.1987,55.82554 -0.6002,19.86328 -0.9903,22.31446 -4.6413,29.1644 -1.8998,3.56445 -14.1802,18.15758 -15.808,18.78514 -1.3528,0.52153 -11.7437,12.387 -17.144,19.57679 -22.0171,29.31324 -28.9787,55.42204 -23.5589,88.35563 1.215,7.38327 2.2598,12.1913 7.9352,36.5168 4.4696,19.15754 6.0314,34.04541 4.7843,45.60608 -2.1834,20.23887 -8.9744,30.20317 -22.1948,32.56578 -3.6568,0.65351 -5.3778,0.65412 -8.3486,0.003 -2.0582,-0.45114 -5.785,-1.2621 -8.2818,-1.80211 -5.3262,-1.15197 -8.4388,-0.73464 -11.0769,1.48515 -7.2082,6.06535 2.6832,18.85653 16.6267,21.50085 8.4631,1.605 21.7172,-0.0831 29.0932,-3.70547 9.217,-4.52641 16.1184,-12.84707 19.0358,-22.95053 2.0227,-7.00461 2.4397,-11.57934 3.0225,-33.1596 0.3208,-11.87954 0.8741,-22.73383 1.2295,-24.12063 1.5299,-5.97028 9.3608,-15.97512 14.4213,-18.42489 2.5189,-1.2194 3.3131,-1.33503 4.8361,-0.70416 4.5525,1.88567 3.9409,4.19096 -3.2753,12.34625 -8.5258,9.63542 -8.0191,7.73158 -8.6414,32.46602 -0.3511,13.95609 -0.8917,23.37595 -1.559,27.16213 -2.077,11.78525 -7.3787,22.40147 -14.2908,28.61606 -10.5385,9.47501 -32.1214,14.58669 -48.1486,11.40348 z"
       id="path18" />
    <path
       style="stroke-width:0.66459"
       class="pink-fill"
       d="m 1183.6909,913.77022 c -6.1224,-1.21598 -13.344,-4.77767 -16.9314,-8.35051 -1.6052,-1.5987 -3.843,-4.85065 -4.9728,-7.22656 -1.7626,-3.70651 -2.0549,-5.0747 -2.0589,-9.63656 0,-4.34752 0.297,-5.91617 1.6499,-8.60512 3.5524,-7.06069 6.224,-7.57833 25.7629,-4.99182 5.5415,0.73358 7.421,0.74705 9.9688,0.0715 6.6873,-1.77324 10.7527,-6.38841 13.5516,-15.38416 1.3437,-4.31855 1.5463,-6.31616 1.5171,-14.95327 -0.037,-10.82918 0.3804,-8.39815 -7.2232,-42.09452 -6.7397,-29.86818 -8.5442,-44.88568 -7.1895,-59.83384 2.1178,-23.36905 12.5515,-48.96584 28.6149,-70.20041 1.6591,-2.19314 7.9887,-9.07165 14.0658,-15.28556 6.0771,-6.21392 12.0097,-12.54337 13.1835,-14.06546 5.8639,-7.60389 7.6029,-15.80033 9.7764,-46.07992 1.2874,-17.93513 2.4198,-25.67915 5.2828,-36.12539 3.9402,-14.37652 7.9475,-21.09087 13.9574,-23.38608 3.8532,-1.47156 6.8803,-0.48508 10.7596,3.50638 4.7874,4.92595 10.8065,17.2559 11.863,24.3014 0.5331,3.5549 -0.7915,6.44927 -2.9515,6.44927 -2.7531,0 -8.0661,-8.56226 -12.3715,-19.93769 -2.2176,-5.8593 -2.7299,-6.6459 -4.3278,-6.6459 -2.5936,0 -11.0672,25.86759 -14.2595,43.53063 -0.6781,3.75206 -1.2985,12.79292 -1.6646,24.25753 -0.6144,19.24425 -1.0408,22.14227 -4.1618,28.28441 -2.4338,4.78986 -5.7044,8.72289 -16.8958,20.31805 -10.793,11.18248 -16.3182,17.95589 -23.0708,28.28299 -15.3773,23.51732 -21.0896,46.00677 -18.0765,71.16731 1.1716,9.78309 2.8352,18.23925 7.2861,37.03551 6.1409,25.93358 7.8212,39.40377 6.5183,52.25359 -2.1014,20.72417 -8.8728,30.83898 -22.2452,33.22876 -3.6568,0.65351 -5.3778,0.65412 -8.3486,0.003 -12.9999,-2.84949 -13.0157,-2.85166 -15.4487,-2.12889 -7.5442,2.24121 -8.4216,8.3304 -2.1976,15.25293 6.2853,6.99077 15.657,9.64331 28.8771,8.1733 11.8161,-1.31389 19.7181,-4.97441 26.1276,-12.10333 8.4424,-9.38994 11.0399,-21.06067 11.088,-49.81949 0.03,-17.70225 0.6274,-22.24292 3.6367,-27.62405 3.0931,-5.53108 8.3032,-11.14432 12.0091,-12.93828 2.6028,-1.26002 3.2515,-1.3409 4.9874,-0.62187 4.4484,1.84258 3.7971,4.05063 -3.7183,12.60684 -8.0707,9.1883 -7.7827,8.08066 -8.3689,32.18987 -0.4704,19.34834 -1.0237,26.16425 -2.647,32.60764 -2.1711,8.61811 -7.5459,18.02598 -13.2055,23.1144 -10.6109,9.54011 -32.0113,14.60857 -48.1486,11.40348 z"
       id="path19" />
    <path
       style="stroke-width:0.66459"
       class="pink-fill"
       d="m 22.928371,822.59718 2.1e-5,-5.81629 583.011398,0.12476 c 512.99451,0.10977 583.29241,0.24286 585.35101,1.10817 3.5395,1.48781 5.0181,3.40701 4.2614,5.53136 -0.3408,0.95678 -1.4641,2.36829 -2.496,3.13667 l -1.8764,1.39707 -584.12573,0.16728 -584.125721,0.16727 z"
       id="path20" />
  </g>
</svg>
