<?xml version="1.0" encoding="UTF-8" standalone="no"?>
<!-- Created with Inkscape (http://www.inkscape.org/) -->
<svg xmlns:inkscape="http://www.inkscape.org/namespaces/inkscape" xmlns:sodipodi="http://sodipodi.sourceforge.net/DTD/sodipodi-0.dtd" xmlns="http://www.w3.org/2000/svg" xmlns:svg="http://www.w3.org/2000/svg" version="1.1" id="svg1" width="2560" height="1440" viewBox="0 0 2560 1440" sodipodi:docname="neon_cat__.svg" inkscape:version="1.4.1 (93de688d07, 2025-03-30)">
  <defs id="defs1"/>
  <defs id="defs2">
    <style type="text/css" id="style1">
    .pink-fill { fill: #d2a39f; fill-opacity: 1; }
  </style>
  </defs>
  <g id="g1">
    <rect style="fill:rgb(20,21,31);fill-opacity:1" id="rect13" width="2558.3315" height="1445.5231" x="0" y="0"/>
    <g id="g13" transform="translate(-201.35394,712.14463)" class="pink-fill" inkscape:label="g13" inkscape:transform-center-x="14.620976" inkscape:transform-center-y="33.229491">
      <path style="stroke:none" class="pink-fill" d="m 1519.2529,176.59764 c 4.2168,3.13289 9.0955,13.81893 14.5268,13.81893 10.6139,0 -4.5039,-20.47331 -9.1986,-22.14201 -8.5081,-3.02409 -25.1542,12.22843 -20.8066,21.05761 4.4197,8.97543 14.1702,-9.62386 15.4784,-12.73453 m -34.6667,5.33333 h 2.6667 c 1.5959,4.38542 10.4456,29.74219 16.5493,26.23047 3.9258,-2.25871 1.3106,-9.81576 0.1647,-12.89714 -3.0767,-8.2736 -11.2209,-27.84497 -23.2418,-21.29524 -7.5695,4.12434 -10.5356,16.32535 -12.6996,23.96191 -6.5842,23.23503 -3.6005,47.9126 -9.1955,70.66667 -3.2478,13.20817 -21.2119,25.66691 -29.6779,36 -15.6904,19.15047 -25.463,39.75488 -30.3457,64 -5.2176,25.90893 2.0911,53.507 7.679,78.66666 2.9754,13.39681 7.7512,28.90511 5.2799,42.66667 -1.6209,9.02572 -4.9453,18.63444 -14.9527,21.02368 -12.042,2.875 -35.011,-11.538 -37.4136,10.97632 -0.277,2.59603 -0.2051,5.45068 0.3796,8 6.8292,29.77482 57.5596,24.44206 73.7068,7.61418 20.1776,-21.02808 12.0917,-49.88591 15.3477,-75.61418 0.8581,-6.78035 16.6352,-17.8894 14.036,-21.88167 -6.9695,-10.70492 -21.6831,10.79231 -22.7901,16.54834 -5.2057,27.06722 7.9651,65.01823 -23.4928,80.64192 -5.2116,2.58846 -10.3239,3.10083 -16,3.73259 -9.2844,1.03336 -19.5504,-0.39632 -26.5226,-7.2181 -4.7156,-4.61393 -8.0247,-12.08984 -0.08,-15.47949 5.8138,-2.48055 13.7579,2.21297 19.9362,2.29834 19.4672,0.2692 25.7374,-15.06486 27.6131,-31.97526 4.2469,-38.28923 -18.2466,-75.45492 -14.0484,-114.66667 2.7719,-25.88973 17.1442,-48.70728 33.6729,-68 8.2651,-9.64714 20.8464,-18.77669 25.9764,-30.66667 4.5508,-10.5476 1.8957,-27.1748 3.0123,-38.66666 1.8549,-19.09164 7.126,-37.07528 14.4403,-54.66667 m 82.6665,45.33333 v -8 c -15.3376,-3.677 -21.6038,-17.66829 -34.6667,-24.77677 -4.1012,-2.23185 -12.3942,-5.48722 -16.9033,-2.86621 -3.7689,2.19075 -2.1679,6.40617 1.1019,8.00716 16.1123,7.88908 31.2675,29.63241 50.4681,27.63582 m -45.1369,-9.2181 c -8.4985,4.19027 -0.4981,19.31202 7.3797,14.48861 6.8079,-4.16821 0.17,-18.21102 -7.3797,-14.48861 m 18.4702,59.88477 c 0.015,22.26164 4,44.35457 4,66.66667 0,15.52986 -0.6796,30.06128 -3.7335,45.33333 -2.8509,14.25627 -6.9667,28.25936 -9.0288,42.66667 -0.4891,3.41618 -2.2945,13.81893 3.5483,13.81893 6.3055,0 5.5431,-11.0162 6.2192,-15.15227 2.7124,-16.59497 7.8483,-32.69319 10.429,-49.33333 3.6071,-23.25781 2.0478,-47.30697 0.4465,-70.66667 -0.7635,-11.13883 -4.0147,-23.50561 -2.5041,-34.64713 1.3855,-10.21875 14.7554,-19.65715 18.037,-30.6862 0.9665,-3.24788 3.1387,-9.34196 -0.2026,-11.93717 -2.8532,-2.21615 -5.6608,0.21907 -6.8797,2.80135 -4.2713,9.04891 -5.9904,17.72339 -13.785,24.85188 -3.3921,3.1023 -13.5997,5.58676 -14.8776,9.99488 -1.4846,5.12134 4.9606,6.03198 8.3313,6.28906 m -74.2685,65.56787 c -5.3518,2.611 -3.243,16.36467 -2.6841,21.0988 2.6261,22.24414 7.7572,40.61897 16.1471,61.33333 1.743,4.30355 4.4789,24.50252 11.107,21.78402 7.0013,-2.87167 0.6819,-18.49951 -1.0546,-23.11735 -8.3872,-22.30534 -16.9503,-42.29379 -17.2417,-66.66667 -0.039,-3.2841 1.0306,-17.99569 -6.2737,-14.43213 m 44.4002,31.8807 c -3.6177,2.43888 -2.1317,10.86035 -2.1317,14.55143 v 44 c 0,3.18783 -0.6983,16.33187 6.1142,12.89714 4.679,-2.35922 3.2189,-11.3667 3.2192,-15.56381 9e-4,-15.10986 0.1029,-30.22379 0,-45.33333 -0.022,-3.22559 -0.8913,-14.80493 -7.2006,-10.55143 M 205.01108,453.968 c -6.2832,4.22778 -0.27947,10.09057 4.91461,10.55151 15.74115,1.39665 32.18709,0.0781 47.99383,0.0781 h 180 682.66668 204 50.6667 c 5.1081,0 15.2634,1.89518 19.1893,-2.13786 6.2146,-6.38428 -3.7721,-9.7666 -8.5226,-9.85596 -17.3198,-0.32584 -34.6769,-0.006 -52,-0.006 h -205.3334 -677.33335 -180 -46.66667 c -5.40061,0 -14.88829,-1.78329 -19.5751,1.37036 m 2554.24182,7.96282 v -9.33333 h -992 -232 -54.6667 c -4.9091,0 -15.9267,-1.78907 -16.7119,5.38582 -0.873,7.97811 10.5247,6.61385 15.3786,6.61418 h 54.6667 233.3333 c 330.5555,0 661.7057,4.15201 992,-2.66667 z" id="path13"/>
    </g>
    <path style="stroke-width:0.66459" class="pink-fill" d="m 1331.4874,1157.0288 c -2.4646,-2.9696 -1.5203,-10.4848 5.0075,-39.8533 5.9946,-26.9702 6.5685,-32.0128 6.5803,-57.8193 0.01,-16.6878 -0.2992,-24.5582 -1.4253,-36.5525 -0.7893,-8.407 -1.641,-19.2229 -1.8928,-24.03527 l -0.4576,-8.74975 -2.9128,-0.73345 c -3.0627,-0.77118 -5.5456,-2.70808 -5.5456,-4.32605 0,-1.82459 3.0116,-4.31609 8.4638,-7.00208 8.785,-4.32792 11.477,-7.63715 17.3589,-21.33932 4.3627,-10.1631 6.1523,-12.21362 9.0197,-10.33482 2.3763,1.55702 2.7278,3.83681 1.3668,8.8647 -1.5708,5.80321 -3.191,8.70077 -9.8451,17.60758 -8.0838,10.82042 -8.6327,12.07704 -8.9545,20.4977 -0.1737,4.54665 0.2098,10.95486 1.0937,18.27626 1.7351,14.3705 1.9605,17.2848 2.7941,36.1159 1.1956,27.0083 -0.2762,41.976 -7.0001,71.1919 -3.6062,15.6687 -5.2791,24.39 -6.0002,31.2795 -0.5189,4.9584 -2.3492,7.9313 -4.883,7.9313 -1.0572,0 -2.3027,-0.4586 -2.7678,-1.019 z" id="path16"/>
  </g>
</svg>
