<?xml version="1.0" encoding="UTF-8" standalone="no"?>
<!-- Created with Inkscape (http://www.inkscape.org/) -->

<svg
   width="512"
   height="512"
   viewBox="0 0 135.46667 135.46667"
   version="1.1"
   id="svg1"
   xml:space="preserve"
   xmlns:xlink="http://www.w3.org/1999/xlink"
   xmlns="http://www.w3.org/2000/svg"
   xmlns:svg="http://www.w3.org/2000/svg"><defs
     id="defs1"><linearGradient
       id="linearGradient4"><stop
         style="stop-color:#91D3C1;stop-opacity:1;"
         offset="0"
         id="stop4" /><stop
         style="stop-color:#A05E55;stop-opacity:1"
         offset="1"
         id="stop5" /></linearGradient><linearGradient
       xlink:href="#linearGradient4"
       id="linearGradient5"
       x1="33.295269"
       y1="187.42157"
       x2="108.51923"
       y2="187.42157"
       gradientUnits="userSpaceOnUse"
       gradientTransform="translate(12.461538,-68.798077)" /></defs><g
     id="layer1"
     transform="matrix(0.93754489,0,0,0.93754489,-19.074308,-47.327681)"><path
       style="fill:url(#linearGradient5);fill-opacity:1"
       d="m 117.86761,194.44482 c -2.10733,-0.61376 -3.81339,-1.4745 -5.67162,-2.86144 -0.86602,-0.64638 -7.92982,-8.60642 -17.753494,-20.00601 -16.315207,-18.93249 -16.315207,-18.93249 -22.491942,-18.93249 -6.651098,0 -8.825078,-0.27679 -12.025569,-1.53105 -6.900855,-2.70442 -12.217244,-9.05253 -13.735001,-16.40046 -0.624644,-3.0241 -0.621573,-20.95887 0.0041,-23.98799 1.617475,-7.8307 7.243412,-14.147667 15.032218,-16.878637 2.446385,-0.85777 2.478972,-0.86103 9.694505,-0.97109 7.239868,-0.11042 7.239868,-0.11042 23.407678,-18.88989 8.892305,-10.3287 16.803775,-19.28215 17.581045,-19.89655 3.02673,-2.39249 6.48613,-3.60877 10.26419,-3.60877 3.21496,0 4.92968,0.40209 7.92157,1.85756 4.45537,2.1674 7.46297,5.78298 8.77976,10.55454 0.57685,2.0903 0.58256,2.53379 0.58256,45.237347 0,41.83606 -0.0161,43.15769 -0.53698,44.17345 -1.98201,3.86486 -6.94394,4.27727 -9.7373,0.80931 -0.87349,-1.08444 -0.87349,-1.08444 -1.01461,-44.02666 -0.14086,-42.868477 -0.14212,-42.944157 -0.73069,-44.071107 -0.32426,-0.62089 -1.12895,-1.50989 -1.7882,-1.97556 -1.06399,-0.75156 -1.4271,-0.84666 -3.23283,-0.84666 -1.42652,0 -2.24952,0.14107 -2.75494,0.47224 -0.39641,0.25973 -8.4775,9.48136 -17.95798,20.49251 -14.671217,17.039937 -17.409318,20.089107 -18.393124,20.482757 -0.953208,0.38139 -2.305381,0.46347 -7.711831,0.46808 -7.120185,0.006 -9.750833,0.26034 -11.724127,1.13322 -2.754958,1.21865 -5.237179,4.02351 -6.110291,6.90452 -0.620067,2.04603 -0.625559,19.10316 -0.0068,21.14283 0.976894,3.22028 3.847062,6.23241 6.933904,7.27686 0.591499,0.20014 4.185502,0.39118 9.290255,0.49382 7.850188,0.15785 8.392219,0.20272 9.493098,0.78586 0.882387,0.46739 5.388878,5.52218 18.451446,20.69638 12.65704,14.70314 17.53613,20.18334 18.22616,20.47165 2.01257,0.84091 4.63891,0.37196 6.27798,-1.12097 0.96141,-0.8757 1.15855,-1.35455 1.60646,-3.90214 0.43593,-2.47943 1.1037,-3.72784 2.50495,-4.68302 2.88215,-1.96464 6.96988,-0.8293 8.48122,2.35562 0.51079,1.0764 0.57035,3.95029 0.12659,6.10755 -0.46226,2.24712 -2.29284,5.80971 -3.91566,7.62044 -1.88519,2.10349 -5.12866,4.10863 -7.9836,4.93554 -2.80509,0.81246 -6.82583,0.8632 -9.3831,0.11841 z"
       id="path3" /></g></svg>
