<?xml version="1.0" encoding="UTF-8" standalone="no"?>
<!-- Created with Inkscape (http://www.inkscape.org/) -->

<svg
   width="512"
   height="512"
   viewBox="0 0 135.46667 135.46667"
   version="1.1"
   id="svg1"
   xml:space="preserve"
   xmlns:xlink="http://www.w3.org/1999/xlink"
   xmlns="http://www.w3.org/2000/svg"
   xmlns:svg="http://www.w3.org/2000/svg"><defs
     id="defs1"><linearGradient
       id="linearGradient11"><stop
         style="stop-color:#dda885;stop-opacity:1;"
         offset="0"
         id="stop11" /><stop
         style="stop-color:#dda885;stop-opacity:1"
         offset="1"
         id="stop12" /></linearGradient><linearGradient
       xlink:href="#linearGradient11"
       id="linearGradient12"
       x1="32.192307"
       y1="210.02884"
       x2="133.18269"
       y2="210.02884"
       gradientUnits="userSpaceOnUse" /></defs><g
     id="layer1"
     transform="matrix(0.93778415,0,0,0.93778415,-29.990411,-129.12723)"><path
       style="fill:url(#linearGradient12);fill-opacity:1"
       d="m 101.86184,281.82289 c -1.07193,-0.49888 -2.556147,-2.05538 -2.946017,-3.0895 -0.46648,-1.23728 -0.39797,-14.65184 0.0807,-15.79514 0.53526,-1.27857 2.489117,-2.95513 3.711047,-3.18437 2.67783,-0.50236 4.87966,0.35309 6.40186,2.48724 0.64674,0.90674 0.65468,1.01222 0.65468,8.70094 0,7.78308 0,7.78308 -0.77546,8.79977 -1.32805,1.74116 -2.37327,2.30504 -4.43933,2.39498 -1.14384,0.0498 -2.16132,-0.0691 -2.68743,-0.31392 z m 34.36762,-8.63075 c -1.98271,-0.48429 -2.94064,-1.45677 -5.0024,-5.0784 -1.88687,-3.31442 -2.13078,-3.9499 -2.13078,-5.55159 0,-3.01413 2.53375,-5.47094 5.64227,-5.47094 2.88575,0 4.15124,1.08303 6.75268,5.77906 1.57126,2.83637 1.71577,3.24148 1.71152,4.79778 -0.003,1.23509 -0.17791,2.00573 -0.63838,2.81873 -1.13203,1.99868 -4.07779,3.25668 -6.33491,2.70536 z m -69.363173,-1.3291 c -2.295503,-1.20802 -3.443545,-3.32174 -3.150063,-5.79973 0.132056,-1.11501 0.597759,-2.1704 1.944081,-4.40572 2.679947,-4.44958 3.866396,-5.41305 6.665785,-5.41305 3.24078,0 5.687975,2.40304 5.687975,5.58535 0,1.60177 -0.866047,3.5034 -3.165688,6.95107 -1.815556,2.72193 -3.125808,3.55635 -5.557034,3.53895 -0.87079,-0.006 -1.957954,-0.21105 -2.425056,-0.45687 z m 30.621106,-18.30633 c -15.133828,-2.58285 -27.433897,-11.99508 -33.497026,-25.63252 -2.56185,-5.76221 -3.754032,-11.46714 -3.754032,-17.96409 0,-11.97271 4.444359,-22.73463 12.867063,-31.15734 8.433617,-8.43361 19.157071,-12.85947 31.157332,-12.85947 11.95979,0 22.7358,4.45065 31.15098,12.86583 8.39254,8.39255 12.85617,19.17241 12.87076,31.08346 0.007,5.94606 -0.99774,11.31819 -3.07007,16.4105 -1.31459,3.23031 -2.95205,4.54146 -5.67172,4.54146 -1.71958,0 -2.96559,-0.4855 -4.06335,-1.58326 -1.82084,-1.82084 -2.08507,-4.10217 -0.86264,-7.44785 1.64878,-4.51256 2.13628,-7.2625 2.13177,-12.02511 -0.008,-8.69902 -3.30895,-16.62947 -9.49672,-22.81724 -6.23912,-6.23911 -14.12333,-9.49573 -22.98901,-9.49573 -8.899997,0 -16.683952,3.22292 -22.972888,9.51186 -6.288935,6.28894 -9.511861,14.07289 -9.511861,22.97289 0,8.89999 3.222926,16.68395 9.511861,22.97289 6.237736,6.23773 14.067951,9.50457 22.801108,9.51284 3.98867,0.004 6.22365,-0.30924 9.66807,-1.35407 4.43319,-1.34475 6.67408,-1.13171 8.4819,0.80639 2.10846,2.26039 1.89716,6.23471 -0.43585,8.19781 -1.54468,1.29976 -6.02725,2.71046 -11.05123,3.47791 -3.24749,0.49608 -10.31072,0.48694 -13.264447,-0.0172 z m 56.444447,-6.49524 c -6.12305,-3.68417 -7.12162,-4.48427 -7.79402,-6.24492 -1.83361,-4.80125 3.29037,-9.42974 7.87582,-7.11422 1.33022,0.67173 8.43714,4.97727 10.29168,6.23495 1.36353,0.9247 2.25694,2.45644 2.51012,4.30354 0.14093,1.0282 0.03,1.55486 -0.59752,2.83752 -1.05826,2.163 -2.42439,3.04913 -4.91712,3.18942 -1.86563,0.105 -1.86563,0.105 -7.36896,-3.20629 z m -109.64333,1.67414 c -3.696116,-2.01652 -4.374508,-6.70814 -1.366402,-9.44976 0.705065,-0.6426 8.681554,-5.39619 10.961958,-6.53277 3.861575,-1.92466 8.341556,0.88012 8.319357,5.20851 -0.0073,1.41604 -0.769273,3.21718 -1.720461,4.06658 -0.369726,0.33017 -3.139117,2.04176 -6.1542,3.80356 -5.316952,3.10683 -5.537835,3.2057 -7.337778,3.28452 -1.311914,0.0575 -2.103945,-0.0541 -2.702474,-0.38064 z M 35.2574,215.22106 c -1.182019,-0.53125 -2.608288,-2.0685 -2.988743,-3.22129 -0.17618,-0.53383 -0.267041,-1.70727 -0.201914,-2.60764 0.135863,-1.87828 0.889872,-3.1938 2.438973,-4.25526 0.956594,-0.65547 1.172962,-0.68011 5.972795,-0.68011 4.799832,0 5.0162,0.0246 5.972794,0.68011 1.796404,1.23092 2.352761,2.37146 2.352761,4.82323 0,2.45112 -0.555928,3.59136 -2.351582,4.82323 -0.93726,0.64298 -1.246736,0.68387 -5.669894,0.74918 -3.444,0.0509 -4.901934,-0.0313 -5.52519,-0.31145 z m 127.47991,-0.0785 c -1.27081,-0.63965 -2.83202,-2.52941 -3.05013,-3.69201 -0.49032,-2.61366 0.38347,-4.83017 2.49901,-6.3391 0.87605,-0.62485 1.1429,-0.65468 5.85676,-0.65468 4.71386,0 4.98071,0.0298 5.85675,0.65468 0.50483,0.36008 1.26683,1.11219 1.69334,1.67137 0.68814,0.90219 0.77546,1.25752 0.77546,3.15532 0,2.40165 -0.44787,3.31663 -2.32502,4.74984 -1.0023,0.76526 -1.07723,0.77643 -5.69532,0.84938 -3.90212,0.0616 -4.83438,-0.004 -5.61085,-0.3948 z m -12.06349,-27.52845 c -3.3993,-0.72084 -5.32548,-4.83659 -3.76865,-8.05258 0.74559,-1.54018 1.20895,-1.88365 7.59111,-5.62692 5.22111,-3.06229 5.22111,-3.06229 7.38214,-3.06229 1.98565,0 2.24903,0.07 3.24555,0.86303 2.80121,2.22908 3.10779,6.51718 0.62787,8.78201 -0.63808,0.58274 -8.87229,5.51252 -10.97334,6.56968 -1.28717,0.64766 -2.68787,0.82752 -4.10468,0.52707 z m -96.095559,-1.31862 c -1.60159,-0.80131 -9.628168,-5.71634 -10.750149,-6.58278 -3.198092,-2.46972 -2.710058,-7.71253 0.888838,-9.54855 1.371787,-0.69984 3.890282,-0.74883 5.159464,-0.10037 2.264379,1.15693 10.309963,6.19189 11.130271,6.96536 2.787663,2.62852 2.113612,7.32413 -1.310897,9.13206 -1.515505,0.80009 -3.673591,0.85672 -5.117527,0.13428 z m 79.315799,-23.05361 c -2.46868,-1.1064 -3.97226,-3.8731 -3.42604,-6.30416 0.35777,-1.59232 3.51272,-6.84861 4.81909,-8.02884 4.07479,-3.68133 10.4975,0.0828 9.30199,5.45164 -0.4238,1.90317 -4.00146,7.4798 -5.38677,8.39656 -1.40187,0.92771 -3.82602,1.14911 -5.30827,0.4848 z m -62.512217,-0.83571 c -1.345995,-0.59898 -2.509808,-2.03147 -4.351618,-5.35625 -1.571256,-2.83637 -1.715768,-3.24147 -1.711517,-4.79777 0.0077,-2.81788 1.543514,-4.78679 4.316254,-5.53341 2.176833,-0.58616 4.747547,0.41151 6.055562,2.35009 4.090586,6.0626 4.714925,9.07917 2.43129,11.74708 -0.557037,0.65078 -1.459669,1.36994 -2.005849,1.59815 -1.212084,0.50644 -3.587236,0.50248 -4.734122,-0.008 z m 30.479997,-2.50328 c -1.07193,-0.49888 -2.556147,-2.05538 -2.946017,-3.0895 -0.46648,-1.23727 -0.39797,-14.65184 0.0807,-15.79513 0.53526,-1.27858 2.489117,-2.95514 3.711047,-3.18438 2.67783,-0.50236 4.87966,0.35309 6.40186,2.48724 0.64674,0.90674 0.65468,1.01222 0.65468,8.70095 0,7.78308 0,7.78308 -0.77546,8.79976 -1.32805,1.74116 -2.37327,2.30505 -4.43933,2.39498 -1.14384,0.0498 -2.16132,-0.0691 -2.68743,-0.31392 z"
       id="path11" /></g></svg>
