<?xml version="1.0" encoding="UTF-8" standalone="no"?>
<!-- Created with Inkscape (http://www.inkscape.org/) -->

<svg
   width="512"
   height="512"
   viewBox="0 0 135.46667 135.46667"
   version="1.1"
   id="svg1"
   xml:space="preserve"
   sodipodi:docname="brightness-20.svg"
   inkscape:export-filename="brightness-20.svg"
   inkscape:export-xdpi="96"
   inkscape:export-ydpi="96"
   xmlns:inkscape="http://www.inkscape.org/namespaces/inkscape"
   xmlns:sodipodi="http://sodipodi.sourceforge.net/DTD/sodipodi-0.dtd"
   xmlns:xlink="http://www.w3.org/1999/xlink"
   xmlns="http://www.w3.org/2000/svg"
   xmlns:svg="http://www.w3.org/2000/svg"><sodipodi:namedview
     id="namedview1"
     pagecolor="#F9E2AF"
     bordercolor="#ffffff"
     borderopacity="1"
     inkscape:showpageshadow="0"
     inkscape:pageopacity="0"
     inkscape:pagecheckerboard="1"
     inkscape:deskcolor="#F9E2AF"
     inkscape:document-units="px"><inkscape:page
       x="0"
       y="0"
       width="135.46667"
       height="135.46667"
       id="page2"
       margin="0"
       bleed="0" /></sodipodi:namedview><defs
     id="defs1"><linearGradient
       id="linearGradient7"><stop
         style="stop-color:#A59599;stop-opacity:1;"
         offset="0"
         id="stop7" /><stop
         style="stop-color:#DBB6BF;stop-opacity:1"
         offset="1"
         id="stop8" /></linearGradient><linearGradient
       xlink:href="#linearGradient7"
       id="linearGradient8"
       x1="68.79808"
       y1="195.23077"
       x2="127.73077"
       y2="195.23077"
       gradientUnits="userSpaceOnUse" /></defs><g
     id="layer1"
     transform="matrix(1.2615761,0,0,1.2615761,-73.951128,-188.38851)"><path
       style="fill:url(#linearGradient8);fill-opacity:1"
       d="m 144.27755,256.57676 c -1.98272,-0.48429 -2.94064,-1.45677 -5.00241,-5.07841 -1.88686,-3.31441 -2.13077,-3.9499 -2.13077,-5.55158 0,-3.01413 2.53374,-5.47095 5.64226,-5.47095 2.88575,0 4.15125,1.08304 6.75269,5.77907 1.57125,2.83637 1.71577,3.24147 1.71151,4.79777 -0.003,1.23509 -0.1779,2.00574 -0.63837,2.81873 -1.13203,1.99868 -4.0778,3.25669 -6.33491,2.70537 z m -38.74207,-19.63543 c -15.133828,-2.58286 -27.433897,-11.99508 -33.497027,-25.63252 -2.56185,-5.76221 -3.754031,-11.46714 -3.754031,-17.9641 0,-11.9727 4.444358,-22.73462 12.867063,-31.15733 8.433617,-8.43362 19.157065,-12.85948 31.157325,-12.85948 11.95979,0 22.73581,4.45066 31.15098,12.86584 8.39255,8.39254 12.85618,19.17241 12.87076,31.08346 0.007,5.94606 -0.99774,11.31818 -3.07007,16.41049 -1.31458,3.23032 -2.95204,4.54147 -5.67171,4.54147 -1.71959,0 -2.96559,-0.4855 -4.06336,-1.58327 -1.82084,-1.82084 -2.08507,-4.10217 -0.86264,-7.44784 1.64878,-4.51256 2.13628,-7.26251 2.13178,-12.02512 -0.008,-8.69901 -3.30896,-16.62947 -9.49672,-22.81723 -6.23912,-6.23912 -14.12334,-9.49574 -22.98902,-9.49574 -8.89999,0 -16.683946,3.22293 -22.972881,9.51187 -6.288936,6.28893 -9.511862,14.07289 -9.511862,22.97288 0,8.9 3.222926,16.68396 9.511862,22.97289 6.237735,6.23774 14.067941,9.50458 22.801101,9.51285 3.98867,0.004 6.22366,-0.30925 9.66807,-1.35407 4.43319,-1.34476 6.67408,-1.13171 8.48191,0.80639 2.10846,2.26039 1.89715,6.2347 -0.43586,8.19781 -1.54467,1.29975 -6.02725,2.71046 -11.05123,3.47791 -3.24748,0.49608 -10.31071,0.48694 -13.26444,-0.0172 z"
       id="path7" /></g></svg>
