<?xml version="1.0" encoding="UTF-8" standalone="no"?>
<!-- Created with Inkscape (http://www.inkscape.org/) -->

<svg
   width="512"
   height="512"
   viewBox="0 0 135.46667 135.46667"
   version="1.1"
   id="svg1"
   xml:space="preserve"
   xmlns:xlink="http://www.w3.org/1999/xlink"
   xmlns="http://www.w3.org/2000/svg"
   xmlns:svg="http://www.w3.org/2000/svg"><defs
     id="defs1"><linearGradient
       id="linearGradient9"><stop
         style="stop-color:#dda885;stop-opacity:1;"
         offset="0"
         id="stop9" /><stop
         style="stop-color:#dda885;stop-opacity:1"
         offset="1"
         id="stop10" /></linearGradient><linearGradient
       xlink:href="#linearGradient9"
       id="linearGradient10"
       x1="28.038462"
       y1="179.91347"
       x2="119.68269"
       y2="179.91347"
       gradientUnits="userSpaceOnUse" /></defs><g
     id="layer1"
     transform="matrix(1.1657591,0,0,1.1657591,-33.139173,-151.68433)"><path
       style="fill:url(#linearGradient10);fill-opacity:1"
       d="m 98.227226,245.99596 c -1.07193,-0.49888 -2.55615,-2.05538 -2.94603,-3.0895 -0.46647,-1.23727 -0.39796,-14.65184 0.0807,-15.79513 0.53526,-1.27858 2.48912,-2.95514 3.71105,-3.18437 2.677834,-0.50237 4.879664,0.35308 6.401864,2.48723 0.64674,0.90674 0.65468,1.01222 0.65468,8.70095 0,7.78308 0,7.78308 -0.77546,8.79976 -1.32805,1.74116 -2.37327,2.30505 -4.43933,2.39498 -1.143844,0.0498 -2.161324,-0.0691 -2.687434,-0.31392 z m 34.367624,-8.63074 c -1.98271,-0.4843 -2.94064,-1.45678 -5.0024,-5.07841 -1.88687,-3.31441 -2.13078,-3.9499 -2.13078,-5.55158 0,-3.01414 2.53375,-5.47095 5.64227,-5.47095 2.88575,0 4.15124,1.08303 6.75268,5.77906 1.57126,2.83638 1.71577,3.24148 1.71152,4.79778 -0.003,1.23509 -0.17791,2.00574 -0.63838,2.81873 -1.13203,1.99868 -4.07779,3.25669 -6.33491,2.70537 z m -69.36318,-1.3291 c -2.295503,-1.20803 -3.443545,-3.32174 -3.150063,-5.79974 0.132056,-1.11501 0.597759,-2.17039 1.944081,-4.40572 2.679947,-4.44957 3.866396,-5.41305 6.665785,-5.41305 3.24078,0 5.687974,2.40305 5.687974,5.58536 0,1.60176 -0.866047,3.50339 -3.165687,6.95107 -1.815556,2.72192 -3.125808,3.55634 -5.557034,3.53894 -0.87079,-0.006 -1.957954,-0.21105 -2.425056,-0.45686 z M 93.85278,217.72978 C 78.718948,215.14693 66.418879,205.7347 60.35575,192.09727 c -2.56185,-5.76222 -3.754032,-11.46714 -3.754032,-17.9641 0,-11.9727 4.444358,-22.73463 12.867063,-31.15733 8.433617,-8.43362 19.157071,-12.85948 31.157339,-12.85948 11.95979,0 22.7358,4.45066 31.15097,12.86583 8.39255,8.39255 12.85618,19.17242 12.87076,31.08346 0.007,5.94606 -0.99773,11.31819 -3.07006,16.4105 -1.31459,3.23032 -2.95205,4.54146 -5.67172,4.54146 -1.71958,0 -2.96559,-0.48549 -4.06335,-1.58326 -1.82084,-1.82084 -2.08507,-4.10217 -0.86264,-7.44785 1.64878,-4.51256 2.13628,-7.2625 2.13177,-12.02511 -0.008,-8.69902 -3.30895,-16.62947 -9.49672,-22.81723 -6.23912,-6.23912 -14.12333,-9.49574 -22.98901,-9.49574 -8.900002,0 -16.683959,3.22293 -22.972895,9.51186 -6.288935,6.28894 -9.511862,14.0729 -9.511862,22.97289 0,8.9 3.222927,16.68395 9.511862,22.97289 6.237736,6.23773 14.06795,9.50458 22.801115,9.51284 3.98867,0.004 6.22365,-0.30924 9.66807,-1.35406 4.43319,-1.34476 6.67408,-1.13172 8.4819,0.80638 2.10846,2.2604 1.89716,6.23471 -0.43585,8.19781 -1.54468,1.29976 -6.02725,2.71046 -11.05123,3.47792 -3.24749,0.49608 -10.310724,0.48694 -13.26445,-0.0172 z m -53.198887,-4.8211 c -3.696116,-2.01651 -4.374508,-6.70813 -1.366402,-9.44976 0.705065,-0.6426 8.681554,-5.39618 10.961957,-6.53277 3.861576,-1.92466 8.341557,0.88013 8.319357,5.20851 -0.0073,1.41605 -0.769272,3.21718 -1.72046,4.06658 -0.369726,0.33017 -3.139117,2.04177 -6.154201,3.80356 -5.316951,3.10683 -5.537834,3.2057 -7.337777,3.28453 -1.311914,0.0575 -2.103945,-0.0541 -2.702474,-0.38065 z m -9.031111,-33.51454 c -1.182019,-0.53126 -2.608287,-2.0685 -2.988742,-3.22129 -0.17618,-0.53383 -0.267042,-1.70728 -0.201914,-2.60765 0.135862,-1.87828 0.889872,-3.1938 2.438973,-4.25526 0.956594,-0.65546 1.172962,-0.6801 5.972794,-0.6801 4.799833,0 5.016201,0.0246 5.972795,0.6801 1.796404,1.23092 2.352761,2.37147 2.352761,4.82323 0,2.45112 -0.555928,3.59136 -2.351583,4.82323 -0.937259,0.64298 -1.246736,0.68387 -5.669894,0.74919 -3.444,0.0509 -4.901933,-0.0313 -5.52519,-0.31145 z m 19.320861,-28.92558 c -1.601589,-0.80131 -9.628167,-5.71634 -10.750149,-6.58278 -3.198091,-2.46972 -2.710058,-7.71253 0.888839,-9.54855 1.371787,-0.69983 3.890282,-0.74882 5.159464,-0.10036 2.264379,1.15693 10.309963,6.19188 11.130271,6.96536 2.787662,2.62852 2.113612,7.32412 -1.310898,9.13205 -1.515504,0.80009 -3.673591,0.85672 -5.117527,0.13428 z"
       id="path9" /></g></svg>
