<?xml version="1.0" encoding="UTF-8" standalone="no"?>
<!-- Created with Inkscape (http://www.inkscape.org/) -->

<svg
   width="512"
   height="512"
   viewBox="0 0 135.46667 135.46668"
   version="1.1"
   id="svg1"
   xml:space="preserve"
   xmlns:xlink="http://www.w3.org/1999/xlink"
   xmlns="http://www.w3.org/2000/svg"
   xmlns:svg="http://www.w3.org/2000/svg"><defs
     id="defs1"><linearGradient
       id="linearGradient8"><stop
         style="stop-color:#c19fe0;stop-opacity:1;"
         offset="0"
         id="stop8" /><stop
         style="stop-color:#c19fe0;stop-opacity:1"
         offset="1"
         id="stop9" /></linearGradient><linearGradient
       xlink:href="#linearGradient8"
       id="linearGradient9"
       x1="63.346153"
       y1="198.60577"
       x2="122.79808"
       y2="198.60577"
       gradientUnits="userSpaceOnUse"
       gradientTransform="translate(0.77884615,-83.336538)" /></defs><g
     id="layer1"
     transform="matrix(1.1657591,0,0,1.1657591,-58.650432,-80.561822)"><path
       style="fill:url(#linearGradient9);fill-opacity:1"
       d="m 106.0157,184.98636 c -1.07193,-0.49889 -2.55615,-2.05539 -2.94602,-3.0895 -0.46647,-1.23728 -0.39797,-14.65185 0.0806,-15.79514 0.53526,-1.27857 2.48912,-2.95513 3.71105,-3.18437 2.67783,-0.50236 4.87967,0.35309 6.40186,2.48723 0.64675,0.90674 0.65468,1.01223 0.65468,8.70095 0,7.78308 0,7.78308 -0.77546,8.79977 -1.32805,1.74116 -2.37327,2.30504 -4.43933,2.39497 -1.14383,0.0498 -2.16132,-0.0691 -2.68743,-0.31391 z m 34.36762,-8.63075 c -1.98271,-0.48429 -2.94064,-1.45677 -5.0024,-5.0784 -1.88687,-3.31442 -2.13078,-3.94991 -2.13078,-5.55159 0,-3.01413 2.53375,-5.47095 5.64227,-5.47095 2.88575,0 4.15124,1.08304 6.75268,5.77907 1.57126,2.83637 1.71577,3.24147 1.71152,4.79777 -0.003,1.23509 -0.17791,2.00574 -0.63838,2.81873 -1.13203,1.99868 -4.07779,3.25669 -6.33491,2.70537 z m -69.363172,-1.3291 c -2.295503,-1.20802 -3.443545,-3.32174 -3.150063,-5.79973 0.132056,-1.11501 0.597759,-2.1704 1.944081,-4.40573 2.679947,-4.44957 3.866396,-5.41304 6.665785,-5.41304 3.24078,0 5.687974,2.40304 5.687974,5.58535 0,1.60177 -0.866047,3.50339 -3.165687,6.95107 -1.815556,2.72193 -3.125808,3.55635 -5.557034,3.53894 -0.87079,-0.006 -1.957954,-0.21104 -2.425056,-0.45686 z M 101.64126,156.72018 C 86.507426,154.13732 74.207357,144.7251 68.144228,131.08766 c -2.56185,-5.76221 -3.754032,-11.46714 -3.754032,-17.96409 0,-11.97271 4.444358,-22.734628 12.867063,-31.157338 8.433617,-8.43362 19.157071,-12.85948 31.157331,-12.85948 11.95979,0 22.7358,4.45066 31.15098,12.86584 8.39254,8.39254 12.85617,19.172408 12.87076,31.083458 0.007,5.94606 -0.99774,11.31819 -3.07007,16.4105 -1.31459,3.23031 -2.95204,4.54146 -5.67172,4.54146 -1.71958,0 -2.96558,-0.4855 -4.06335,-1.58327 -1.82084,-1.82083 -2.08507,-4.10217 -0.86264,-7.44784 1.64878,-4.51256 2.13628,-7.26251 2.13177,-12.02512 -0.008,-8.69901 -3.30895,-16.629468 -9.49672,-22.817228 -6.23911,-6.23912 -14.12333,-9.49573 -22.98901,-9.49573 -8.899998,0 -16.683951,3.22292 -22.972887,9.51186 -6.288935,6.28893 -9.511862,14.072888 -9.511862,22.972888 0,8.89999 3.222927,16.68395 9.511862,22.97288 6.237736,6.23774 14.067949,9.50458 22.801107,9.51285 3.98867,0.004 6.22366,-0.30925 9.66807,-1.35407 4.43319,-1.34476 6.67408,-1.13171 8.48191,0.80639 2.10846,2.26039 1.89715,6.2347 -0.43586,8.19781 -1.54468,1.29975 -6.02725,2.71046 -11.05123,3.47791 -3.24749,0.49608 -10.31072,0.48694 -13.26444,-0.0172 z"
       id="path8" /></g></svg>
