<?xml version="1.0" encoding="UTF-8" standalone="no"?>
<!-- Created with Inkscape (http://www.inkscape.org/) -->

<svg
   width="512"
   height="512"
   viewBox="0 0 135.46667 135.46665"
   version="1.1"
   id="svg1"
   xml:space="preserve"
   xmlns:xlink="http://www.w3.org/1999/xlink"
   xmlns="http://www.w3.org/2000/svg"
   xmlns:svg="http://www.w3.org/2000/svg"><defs
     id="defs1"><linearGradient
       id="linearGradient10"><stop
         style="stop-color:#ed939d;stop-opacity:1;"
         offset="0"
         id="stop10" /><stop
         style="stop-color:#ed939d;stop-opacity:1"
         offset="1"
         id="stop11" /></linearGradient><linearGradient
       xlink:href="#linearGradient10"
       id="linearGradient11"
       x1="46.21154"
       y1="165.375"
       x2="131.625"
       y2="165.375"
       gradientUnits="userSpaceOnUse" /></defs><g
     id="layer1"
     transform="matrix(0.93778419,0,0,0.93778419,-29.237751,-88.225426)"><path
       style="fill:url(#linearGradient11);fill-opacity:1"
       d="m 115.10223,238.20751 c -1.07193,-0.49889 -2.55614,-2.05539 -2.94602,-3.0895 -0.46647,-1.23728 -0.39797,-14.65185 0.0807,-15.79514 0.53526,-1.27857 2.48912,-2.95514 3.71105,-3.18437 2.67782,-0.50236 4.87966,0.35309 6.40186,2.48723 0.64674,0.90674 0.65468,1.01223 0.65468,8.70095 0,7.78308 0,7.78308 -0.77547,8.79977 -1.32804,1.74115 -2.37327,2.30504 -4.43933,2.39497 -1.14383,0.0498 -2.16132,-0.0691 -2.68743,-0.31391 z m 34.36763,-8.63075 c -1.98272,-0.48429 -2.94064,-1.45677 -5.00241,-5.07841 -1.88686,-3.31441 -2.13077,-3.9499 -2.13077,-5.55158 0,-3.01413 2.53374,-5.47095 5.64226,-5.47095 2.88575,0 4.15125,1.08304 6.75269,5.77907 1.57125,2.83637 1.71577,3.24147 1.71151,4.79777 -0.003,1.23509 -0.1779,2.00574 -0.63837,2.81873 -1.13203,1.99868 -4.0778,3.25669 -6.33491,2.70537 z m -69.363177,-1.3291 c -2.295503,-1.20802 -3.443545,-3.32174 -3.150063,-5.79973 0.132056,-1.11501 0.597759,-2.1704 1.944081,-4.40573 2.679947,-4.44957 3.866396,-5.41304 6.665785,-5.41304 3.24078,0 5.687974,2.40304 5.687974,5.58535 0,1.60177 -0.866047,3.50339 -3.165687,6.95107 -1.815557,2.72193 -3.125809,3.55635 -5.557035,3.53894 -0.870789,-0.006 -1.957953,-0.21104 -2.425055,-0.45686 z m 30.621107,-18.30633 c -15.133829,-2.58286 -27.433898,-11.99508 -33.497027,-25.63252 -2.56185,-5.76221 -3.754032,-11.46714 -3.754032,-17.9641 0,-11.9727 4.444358,-22.73462 12.867063,-31.15733 8.433617,-8.43361 19.157066,-12.85948 31.157326,-12.85948 11.95979,0 22.73581,4.45066 31.15098,12.86584 8.39255,8.39254 12.85618,19.17241 12.87076,31.08346 0.007,5.94606 -0.99773,11.31818 -3.07007,16.4105 -1.31458,3.23031 -2.95204,4.54146 -5.67171,4.54146 -1.71959,0 -2.96559,-0.4855 -4.06336,-1.58327 -1.82084,-1.82084 -2.08507,-4.10217 -0.86264,-7.44784 1.64878,-4.51256 2.13628,-7.26251 2.13178,-12.02512 -0.008,-8.69901 -3.30896,-16.62947 -9.49672,-22.81723 -6.23912,-6.23912 -14.12334,-9.49573 -22.98902,-9.49573 -8.89999,0 -16.68395,3.22292 -22.972882,9.51186 -6.288935,6.28893 -9.511862,14.07289 -9.511862,22.97288 0,8.9 3.222927,16.68396 9.511862,22.97289 6.237732,6.23774 14.067942,9.50458 22.801102,9.51285 3.98868,0.004 6.22366,-0.30925 9.66807,-1.35407 4.43319,-1.34476 6.67408,-1.13171 8.48191,0.80639 2.10846,2.26039 1.89715,6.2347 -0.43586,8.19781 -1.54467,1.29975 -6.02725,2.71046 -11.05123,3.47791 -3.24748,0.49608 -10.31071,0.48694 -13.26444,-0.0172 z m -53.198884,-4.82111 c -3.696116,-2.01651 -4.374508,-6.70813 -1.366402,-9.44975 0.705065,-0.64261 8.681554,-5.39619 10.961957,-6.53277 3.861576,-1.92466 8.341557,0.88012 8.319357,5.2085 -0.0073,1.41605 -0.769272,3.21718 -1.72046,4.06659 -0.369727,0.33016 -3.139117,2.04176 -6.154201,3.80355 -5.316951,3.10683 -5.537834,3.20571 -7.337777,3.28453 -1.311914,0.0574 -2.103945,-0.0541 -2.702474,-0.38065 z m -9.031111,-33.51454 c -1.182019,-0.53126 -2.608287,-2.0685 -2.988742,-3.22129 -0.17618,-0.53383 -0.267042,-1.70727 -0.201914,-2.60765 0.135862,-1.87828 0.889872,-3.19379 2.438973,-4.25525 0.956593,-0.65547 1.172962,-0.68011 5.972794,-0.68011 4.799833,0 5.016201,0.0246 5.972795,0.68011 1.796404,1.23091 2.352761,2.37146 2.352761,4.82322 0,2.45113 -0.555928,3.59137 -2.351583,4.82323 -0.937259,0.64299 -1.246736,0.68388 -5.669894,0.74919 -3.444,0.0508 -4.901933,-0.0313 -5.52519,-0.31145 z m 19.320861,-28.92557 c -1.601589,-0.80132 -9.628167,-5.71634 -10.750149,-6.58279 -3.198092,-2.46971 -2.710058,-7.71252 0.888839,-9.54854 1.371787,-0.69984 3.890282,-0.74883 5.159464,-0.10037 2.264379,1.15693 10.309963,6.19189 11.130271,6.96536 2.787662,2.62852 2.113612,7.32413 -1.310898,9.13206 -1.515504,0.80009 -3.673591,0.85672 -5.117527,0.13428 z M 147.13445,119.6265 c -2.46868,-1.10641 -3.97226,-3.87311 -3.42604,-6.30417 0.35777,-1.59231 3.51272,-6.84861 4.8191,-8.02884 4.07478,-3.68132 10.4975,0.0829 9.30198,5.45165 -0.42379,1.90317 -4.00145,7.4798 -5.38677,8.39656 -1.40187,0.92771 -3.82602,1.14911 -5.30827,0.4848 z m -62.512212,-0.83571 c -1.345994,-0.59898 -2.509808,-2.03148 -4.351618,-5.35625 -1.571255,-2.83637 -1.715767,-3.24147 -1.711516,-4.79778 0.0077,-2.81787 1.543514,-4.78678 4.316254,-5.5334 2.176833,-0.58616 4.747546,0.4115 6.055561,2.35009 4.090586,6.06259 4.714926,9.07917 2.431291,11.74708 -0.557037,0.65077 -1.459669,1.36994 -2.005849,1.59815 -1.212084,0.50644 -3.587236,0.50248 -4.734123,-0.008 z m 30.479992,-2.50328 c -1.07193,-0.49888 -2.55614,-2.05538 -2.94602,-3.0895 -0.46647,-1.23728 -0.39797,-14.651843 0.0807,-15.795137 0.53526,-1.278572 2.48912,-2.955136 3.71105,-3.184371 2.67782,-0.502364 4.87966,0.353087 6.40186,2.487234 0.64674,0.906741 0.65468,1.012225 0.65468,8.700944 0,7.78308 0,7.78308 -0.77547,8.79977 -1.32804,1.74116 -2.37327,2.30504 -4.43933,2.39498 -1.14383,0.0498 -2.16132,-0.0691 -2.68743,-0.31392 z"
       id="path10" /></g></svg>
