<?xml version="1.0" encoding="UTF-8" standalone="no"?>
<!-- Created with Inkscape (http://www.inkscape.org/) -->

<svg
   width="512"
   height="512"
   viewBox="0 0 135.46667 135.46667"
   version="1.1"
   id="svg1"
   xml:space="preserve"
   sodipodi:docname="brightness-10.svg"
   inkscape:version="1.4.2 (ebf0e940d0, 2025-05-08)"
   xmlns:inkscape="http://www.inkscape.org/namespaces/inkscape"
   xmlns:sodipodi="http://sodipodi.sourceforge.net/DTD/sodipodi-0.dtd"
   xmlns:xlink="http://www.w3.org/1999/xlink"
   xmlns="http://www.w3.org/2000/svg"
   xmlns:svg="http://www.w3.org/2000/svg"><sodipodi:namedview
     id="namedview1"
     pagecolor="#505050"
     bordercolor="#d2a39f"
     borderopacity="1"
     inkscape:showpageshadow="0"
     inkscape:pageopacity="0"
     inkscape:pagecheckerboard="1"
     inkscape:deskcolor="#505050"
     inkscape:zoom="1.9980469"
     inkscape:cx="255.74976"
     inkscape:cy="256"
     inkscape:window-width="3420"
     inkscape:window-height="1374"
     inkscape:window-x="0"
     inkscape:window-y="0"
     inkscape:window-maximized="1"
     inkscape:current-layer="svg1" /><defs
     id="defs1"><linearGradient
       id="linearGradient11"><stop
         style="stop-color:#d2a39f;stop-opacity:1;"
         offset="0"
         id="stop11" /><stop
         style="stop-color:#d2a39f;stop-opacity:1"
         offset="1"
         id="stop12" /></linearGradient><linearGradient
       xlink:href="#linearGradient11"
       id="linearGradient12"
       x1="32.192307"
       y1="210.02884"
       x2="133.18269"
       y2="210.02884"
       gradientUnits="userSpaceOnUse" /></defs><g
     id="layer1"
     transform="matrix(0.93778415,0,0,0.93778415,-29.990411,-129.12723)"><path
       id="path11"
       style="fill:url(#linearGradient12);fill-opacity:1"
       d="m 101.79238,146.77525 c -0.0103,0.072 -0.007,0.14609 0.004,0.21877 8.9e-4,-0.0729 2.5e-4,-0.14584 -0.004,-0.21877 z m 2.46815,19.16822 c -12.000261,0 -22.723755,4.42565 -31.157372,12.85926 -8.422704,8.42271 -12.866977,19.18466 -12.866977,31.15737 0,6.49695 1.192442,12.20197 3.754292,17.96418 6.063129,13.63744 18.363294,23.04971 33.497122,25.63256 2.953725,0.50414 10.016795,0.51292 13.264285,0.0171 5.02398,-0.76745 9.50659,-2.17846 11.05127,-3.47822 2.33301,-1.9631 2.54434,-5.937 0.43588,-8.19739 -1.80782,-1.9381 -4.0491,-2.15149 -8.48229,-0.80674 -3.44442,1.04483 -5.67892,1.35848 -9.66759,1.35448 -8.733105,-0.008 -16.563536,-3.27557 -22.801272,-9.5133 -6.288935,-6.28894 -9.511644,-14.07266 -9.511644,-22.97265 0,-8.9 3.222709,-16.68371 9.511644,-22.97265 6.288936,-6.28894 14.072655,-9.5122 22.972652,-9.5122 8.86568,0 16.75006,3.25656 22.98918,9.49567 6.18777,6.18777 9.48877,14.11823 9.49677,22.81725 0.005,4.76261 -0.48323,7.51297 -2.13201,12.02553 -1.22243,3.34568 -0.9579,5.62658 0.86294,7.44742 1.09776,1.09776 2.34385,1.58316 4.06343,1.58316 2.71967,0 4.3568,-1.31088 5.67139,-4.54119 2.07233,-5.09231 3.07744,-10.46471 3.07044,-16.41077 -0.0146,-11.91105 -4.47829,-22.69043 -12.87083,-31.08298 -8.41518,-8.41518 -19.19152,-12.86587 -31.15131,-12.86587 z m -53.703512,17.97244 c -0.0187,0.004 -0.03746,0.007 -0.05621,0.011 0.02888,0.0174 0.05777,0.0351 0.08651,0.0523 -0.01017,-0.0211 -0.02027,-0.0422 -0.03031,-0.0634 z m 111.883742,22.37641 c -0.0349,0.0391 -0.0228,0.0194 0.0149,0.12619 0.005,0.0153 0.0112,0.0308 0.0171,0.0457 -0.008,-0.0574 -0.0192,-0.11499 -0.032,-0.17193 z m 8.77158,3.16963 c -0.0393,-1.5e-4 -0.12547,0.0269 -0.16256,0.0441 -0.0234,0.0109 -0.0458,0.0214 -0.0672,0.0314 0.0169,-0.002 0.0332,-0.004 0.049,-0.007 0.0666,-0.009 0.15661,0.007 0.19617,-0.0474 0.003,-0.004 0.005,-0.008 0.005,-0.011 v -5.5e-4 -5.5e-4 -5.5e-4 -5.5e-4 l -5.5e-4,-5.5e-4 v -5.5e-4 -5.5e-4 l -5.5e-4,-5.6e-4 -5.5e-4,-5.5e-4 v -5.5e-4 l -5.5e-4,-5.5e-4 -5.5e-4,-5.5e-4 -5.5e-4,-5.5e-4 -5.5e-4,-5.5e-4 h -5.6e-4 -5.5e-4 -5.5e-4 c -0.004,-0.002 -0.009,-0.002 -0.0143,-0.002 z m -123.873444,4.62661 c -0.05387,0.0143 -0.108053,0.0284 -0.162008,0.0424 -0.044,0.0723 -0.0882,0.14283 -0.132803,0.21215 0.1036,-0.0845 0.201903,-0.169 0.294811,-0.25458 z m 87.399564,43.0027 c -3.10852,0 -5.64218,2.45668 -5.64218,5.47081 0,1.60169 0.24403,2.23739 2.1309,5.55181 2.06176,3.62163 3.01971,4.59417 5.00242,5.07846 2.25712,0.55132 5.20282,-0.70697 6.33485,-2.70565 0.46047,-0.813 0.63511,-1.58352 0.63811,-2.81861 0.004,-1.5563 -0.1403,-1.96161 -1.71156,-4.79798 -2.60144,-4.69603 -3.86679,-5.77884 -6.75254,-5.77884 z m -30.22886,2.53207 c -0.26725,-0.0142 -0.54098,-0.0114 -0.82051,0.006 -0.31945,0.0205 -0.64669,0.0623 -0.98141,0.12509 -1.22193,0.22924 -3.176055,1.90593 -3.711315,3.1845 -0.47867,1.1433 -0.546969,14.55742 -0.08045,15.7947 0.38987,1.03412 1.873978,2.59085 2.945908,3.08973 0.52611,0.24482 1.54362,0.3639 2.68746,0.3141 2.06606,-0.0899 3.11119,-0.6537 4.43924,-2.39486 0.77546,-1.01669 0.77533,-1.01716 0.77533,-8.80024 0,-7.68872 -0.008,-7.79376 -0.65465,-8.7005 -1.16543,-1.63396 -2.72883,-2.51861 -4.5996,-2.61803 z m -35.803807,1.09658 c -0.04819,0.11436 -0.08385,0.22509 -0.108005,0.33339 0.03893,-0.11082 0.07503,-0.22177 0.108005,-0.33339 z M 65.10855,268.412 c -0.07597,0.0827 -0.134132,0.16783 -0.116271,0.25568 4.86e-4,0.002 9.19e-4,0.005 0.0017,0.006 1.6e-4,2.8e-4 9.27e-4,0.001 0.0011,0.002 l 5.51e-4,5.5e-4 h 5.51e-4 v 5.5e-4 h 5.51e-4 l 5.51e-4,5.5e-4 h 5.51e-4 l 5.51e-4,5.5e-4 c 2.74e-4,2e-5 8.17e-4,2e-5 0.0011,0 2.96e-4,-6e-5 0.0013,-4.6e-4 0.0017,-5.5e-4 0.01898,-0.008 0.05655,-0.0778 0.06502,-0.10966 0.01371,-0.0515 0.02854,-0.10347 0.04243,-0.15539 z" /></g></svg>
