<?xml version="1.0" encoding="UTF-8" standalone="no"?>
<!-- Created with Inkscape (http://www.inkscape.org/) -->

<svg
   width="512"
   height="512"
   viewBox="0 0 135.46667 135.46667"
   version="1.1"
   id="svg1"
   xml:space="preserve"
   sodipodi:docname="brightness-60.svg"
   inkscape:version="1.4.2 (ebf0e940d0, 2025-05-08)"
   xmlns:inkscape="http://www.inkscape.org/namespaces/inkscape"
   xmlns:sodipodi="http://sodipodi.sourceforge.net/DTD/sodipodi-0.dtd"
   xmlns:xlink="http://www.w3.org/1999/xlink"
   xmlns="http://www.w3.org/2000/svg"
   xmlns:svg="http://www.w3.org/2000/svg"><sodipodi:namedview
     id="namedview1"
     pagecolor="#505050"
     bordercolor="#ffffff"
     borderopacity="1"
     inkscape:showpageshadow="0"
     inkscape:pageopacity="0"
     inkscape:pagecheckerboard="1"
     inkscape:deskcolor="#505050"
     inkscape:zoom="1.9980469"
     inkscape:cx="255.74976"
     inkscape:cy="256"
     inkscape:window-width="3420"
     inkscape:window-height="1374"
     inkscape:window-x="0"
     inkscape:window-y="0"
     inkscape:window-maximized="1"
     inkscape:current-layer="svg1" /><defs
     id="defs1"><linearGradient
       id="linearGradient11"><stop
         style="stop-color:#75cf9a;stop-opacity:1;"
         offset="0"
         id="stop11" /><stop
         style="stop-color:#75cf9a;stop-opacity:1"
         offset="1"
         id="stop12" /></linearGradient><linearGradient
       xlink:href="#linearGradient11"
       id="linearGradient12"
       x1="32.192307"
       y1="210.02884"
       x2="133.18269"
       y2="210.02884"
       gradientUnits="userSpaceOnUse" /></defs><g
     id="layer1"
     transform="matrix(0.93778415,0,0,0.93778415,-29.990411,-129.12723)"><path
       id="path11"
       style="fill:url(#linearGradient12);fill-opacity:1"
       d="m 104.5096,137.70335 c -0.26725,-0.0142 -0.54098,-0.0121 -0.82051,0.006 -0.31945,0.0205 -0.64669,0.0623 -0.98141,0.12509 -1.22193,0.22924 -3.176055,1.90592 -3.711315,3.1845 -0.47867,1.14329 -0.546948,14.55743 -0.08045,15.7947 0.38987,1.03412 1.873978,2.59085 2.945908,3.08973 0.52611,0.24482 1.54362,0.36389 2.68746,0.31409 2.06606,-0.0899 3.11119,-0.65424 4.43924,-2.3954 0.77546,-1.01668 0.77533,-1.01661 0.77533,-8.79969 0,-7.68873 -0.008,-7.79376 -0.65465,-8.7005 -1.16543,-1.63397 -2.72883,-2.51861 -4.5996,-2.61803 z m -33.619452,8.84873 c -0.424931,0.003 -0.847131,0.0565 -1.255288,0.16642 -2.77274,0.74662 -4.308661,2.71574 -4.316361,5.53362 -0.0043,1.5563 0.1403,1.96161 1.711556,4.79798 1.84181,3.32478 3.005633,4.75721 4.351628,5.35619 1.146886,0.51048 3.521972,0.51545 4.734056,0.008 0.54618,-0.22821 1.448779,-0.94726 2.005816,-1.59804 2.283635,-2.66791 1.659361,-5.68464 -2.431225,-11.74724 -1.062762,-1.5751 -2.958814,-2.52869 -4.800182,-2.51664 z m 33.370382,19.39139 c -12.000261,0 -22.723755,4.42565 -31.157372,12.85926 -8.422704,8.42271 -12.866977,19.18466 -12.866977,31.15737 0,6.49695 1.192442,12.20197 3.754292,17.96418 6.063129,13.63744 18.363294,23.04971 33.497122,25.63256 2.953725,0.50414 10.016795,0.51306 13.264285,0.0171 5.02398,-0.76745 9.50659,-2.17846 11.05127,-3.47822 2.33301,-1.9631 2.54434,-5.937 0.43588,-8.19739 -1.80782,-1.9381 -4.0491,-2.15149 -8.48229,-0.80674 -3.44442,1.04483 -5.67892,1.35848 -9.66759,1.35448 -8.733133,-0.008 -16.563536,-3.27557 -22.801272,-9.5133 -6.288935,-6.28894 -9.511644,-14.07266 -9.511644,-22.97265 0,-8.9 3.222709,-16.68371 9.511644,-22.97265 6.288936,-6.28894 14.072655,-9.5122 22.972652,-9.5122 8.86568,0 16.75006,3.25656 22.98918,9.49567 6.18777,6.18777 9.48877,14.11823 9.49677,22.81725 0.005,4.76261 -0.48323,7.51297 -2.13201,12.02553 -1.22243,3.34568 -0.9579,5.62658 0.86294,7.44742 1.09776,1.09776 2.34385,1.58316 4.06343,1.58316 2.71967,0 4.3568,-1.31088 5.67139,-4.54119 2.07233,-5.09231 3.07744,-10.46471 3.07044,-16.41077 -0.0146,-11.91105 -4.47829,-22.69043 -12.87083,-31.08298 -8.41518,-8.41518 -19.19152,-12.86587 -31.15131,-12.86587 z m -56.925491,3.66502 c -0.959745,0.0187 -1.932137,0.20554 -2.61803,0.55546 -3.598896,1.83602 -4.086933,7.07884 -0.888841,9.54856 1.121981,0.86644 9.148259,5.78151 10.749849,6.58282 1.443936,0.72244 3.602081,0.66619 5.117586,-0.1339 3.424509,-1.80793 4.098607,-6.504 1.310944,-9.13252 -0.820308,-0.77347 -8.865694,-5.80832 -11.130073,-6.96525 -0.634591,-0.32423 -1.58169,-0.47384 -2.541435,-0.45517 z m -6.856694,34.84829 c -4.799833,0 -5.016218,0.0245 -5.972812,0.68 -1.549101,1.06146 -2.303077,2.37691 -2.43894,4.25519 -0.06513,0.90037 0.02605,2.07373 0.202235,2.60756 0.380455,1.15279 1.806316,2.69018 2.988335,3.22143 0.623256,0.28015 2.081361,0.36224 5.525361,0.31134 4.423158,-0.0653 4.732476,-0.10589 5.669736,-0.74887 1.795654,-1.23187 2.351874,-2.37221 2.351874,-4.82333 0,-2.45177 -0.556573,-3.5924 -2.352977,-4.82332 -0.956594,-0.65551 -1.17298,-0.68 -5.972812,-0.68 z m 121.962415,1.83554 c -0.0349,0.0391 -0.0228,0.0194 0.0149,0.12619 0.005,0.0153 0.0112,0.0308 0.0171,0.0457 -0.008,-0.0574 -0.0192,-0.11499 -0.032,-0.17193 z m 8.77158,3.16963 c -0.0393,-1.5e-4 -0.12547,0.0269 -0.16256,0.0441 -0.0234,0.0109 -0.0458,0.0214 -0.0672,0.0314 0.0169,-0.002 0.0332,-0.004 0.049,-0.007 0.0666,-0.009 0.15661,0.007 0.19617,-0.0474 0.003,-0.004 0.005,-0.008 0.005,-0.011 v -5.5e-4 -5.5e-4 -5.5e-4 -5.5e-4 l -5.5e-4,-5.5e-4 v -5.5e-4 -5.5e-4 l -5.5e-4,-5.6e-4 -5.5e-4,-5.5e-4 v -5.5e-4 l -5.5e-4,-5.5e-4 -5.5e-4,-5.5e-4 -5.5e-4,-5.5e-4 -5.5e-4,-5.5e-4 h -5.6e-4 -5.5e-4 -5.5e-4 c -0.004,-0.002 -0.009,-0.002 -0.0143,-0.002 z M 56.816375,232.14641 c -0.962685,-0.0599 -1.966734,0.12554 -2.932127,0.6067 -2.280404,1.13658 -10.256939,5.89008 -10.962004,6.53268 -3.008106,2.74162 -2.330067,7.43341 1.366049,9.44993 0.598529,0.32654 1.390978,0.43827 2.702892,0.38077 1.799943,-0.0788 2.020807,-0.17797 7.337759,-3.2848 3.015083,-1.7618 5.784381,-3.47316 6.154107,-3.80333 0.951188,-0.8494 1.713072,-2.6507 1.720372,-4.06674 0.01665,-3.24629 -2.498992,-5.63544 -5.387048,-5.81521 z M 72.32618,256.2443 c -2.799389,0 -3.986084,0.96392 -6.666031,5.4135 -1.346322,2.23532 -1.812042,3.29062 -1.944098,4.40563 -0.293482,2.47799 0.85484,4.59176 3.150343,5.79978 0.467102,0.24582 1.554373,0.45082 2.425163,0.45682 2.431226,0.0174 3.741215,-0.8169 5.556771,-3.53883 2.299641,-3.44767 3.165772,-5.34971 3.165772,-6.95148 0,-3.18231 -2.44714,-5.58542 -5.68792,-5.58542 z m 62.41228,0.84696 c -3.10852,0 -5.64218,2.45668 -5.64218,5.47081 0,1.60169 0.24403,2.23739 2.1309,5.55181 2.06176,3.62163 3.01971,4.59417 5.00242,5.07846 2.25712,0.55132 5.20282,-0.70697 6.33485,-2.70565 0.46047,-0.813 0.63511,-1.58352 0.63811,-2.81861 0.004,-1.5563 -0.1403,-1.96161 -1.71156,-4.79798 -2.60144,-4.69603 -3.86679,-5.77884 -6.75254,-5.77884 z m -30.22886,2.53207 c -0.26725,-0.0142 -0.54098,-0.0121 -0.82051,0.006 -0.31945,0.0205 -0.64669,0.0623 -0.98141,0.12509 -1.22193,0.22924 -3.176055,1.90593 -3.711315,3.1845 -0.47867,1.1433 -0.546948,14.55742 -0.08045,15.7947 0.38987,1.03412 1.873978,2.59085 2.945908,3.08973 0.52611,0.24482 1.54362,0.3639 2.68746,0.3141 2.06606,-0.0899 3.11119,-0.6537 4.43924,-2.39486 0.77546,-1.01669 0.77533,-1.01716 0.77533,-8.80024 0,-7.68872 -0.008,-7.79376 -0.65465,-8.7005 -1.16543,-1.63396 -2.72883,-2.51861 -4.5996,-2.61803 z" /></g></svg>
