<?xml version="1.0" encoding="UTF-8" standalone="no"?>
<!-- Uploaded to: SVG Repo, www.svgrepo.com, Generator: SVG Repo Mixer Tools -->

<svg
   fill="#d2a39f"
   version="1.1"
   id="Capa_1"
   width="512px"
   height="512px"
   viewBox="0 0 606.816 606.816"
   xml:space="preserve"
   sodipodi:docname="clipboard.svg"
   inkscape:version="1.4.3 (0d15f75042, 2025-12-25)"
   xmlns:inkscape="http://www.inkscape.org/namespaces/inkscape"
   xmlns:sodipodi="http://sodipodi.sourceforge.net/DTD/sodipodi-0.dtd"
   xmlns="http://www.w3.org/2000/svg"
   xmlns:svg="http://www.w3.org/2000/svg"><defs
   id="defs12" /><sodipodi:namedview
   id="namedview12"
   pagecolor="#505050"
   bordercolor="#ffffff"
   borderopacity="1"
   inkscape:showpageshadow="0"
   inkscape:pageopacity="0"
   inkscape:pagecheckerboard="1"
   inkscape:deskcolor="#505050"
   inkscape:zoom="1.5820312"
   inkscape:cx="255.68395"
   inkscape:cy="255.68395"
   inkscape:window-width="3420"
   inkscape:window-height="1374"
   inkscape:window-x="0"
   inkscape:window-y="0"
   inkscape:window-maximized="1"
   inkscape:current-layer="Capa_1" />
<g
   id="g12"
   transform="matrix(0.85925926,0,0,0.85925926,42.701937,42.701867)">
	<g
   id="g11">
		<g
   id="g2">
			<path
   d="M 477.884,79.917 H 427.059 C 415.151,72.136 402.185,66.462 390.202,62.36 384.607,47.665 375.665,34.439 364.155,24.08 347.263,8.875 325.688,0.5 303.408,0.5 c -22.281,0 -43.854,8.374 -60.747,23.581 -11.509,10.36 -20.452,23.586 -26.046,38.28 -11.984,4.102 -24.949,9.776 -36.857,17.557 h -50.825 c -32.058,0 -58.14,26.082 -58.14,58.14 v 410.118 c 0,32.059 26.082,58.141 58.14,58.141 h 348.951 c 32.058,0 58.14,-26.082 58.14,-58.141 V 138.057 c -10e-4,-32.058 -26.083,-58.14 -58.14,-58.14 z M 253.876,87.36 c 0.491,-2.551 1.149,-5.034 1.947,-7.442 7.067,-21.335 25.7,-36.578 47.585,-36.578 21.885,0 40.518,15.243 47.585,36.578 0.798,2.409 1.456,4.891 1.947,7.442 1.117,5.81 5.572,10.378 11.294,11.885 20.769,5.473 37.699,13.664 48.5,23.512 1.703,1.553 3.259,3.146 4.648,4.777 6.852,8.046 1.201,20.417 -9.367,20.417 H 198.801 c -10.568,0 -16.218,-12.37 -9.367,-20.417 1.389,-1.632 2.945,-3.224 4.648,-4.777 10.801,-9.849 27.732,-18.04 48.5,-23.512 5.722,-1.508 10.176,-6.076 11.294,-11.885 z m 239.308,460.816 c 0,8.451 -6.851,15.301 -15.3,15.301 h -348.95 c -8.45,0 -15.3,-6.85 -15.3,-15.301 V 138.057 c 0,-8.45 6.85,-15.3 15.3,-15.3 h 16.175 c -0.507,2.123 -0.894,4.28 -1.147,6.468 -1.164,10.078 0.478,20.292 4.75,29.538 4.262,9.227 10.955,17.082 19.354,22.717 9.08,6.091 19.708,9.311 30.735,9.311 h 209.215 c 11.027,0 21.655,-3.22 30.734,-9.312 8.4,-5.635 15.094,-13.491 19.355,-22.717 4.271,-9.246 5.913,-19.46 4.75,-29.538 -0.253,-2.187 -0.641,-4.344 -1.147,-6.467 h 16.175 c 8.45,0 15.3,6.85 15.3,15.3 v 410.119 z"
   id="path1" />
			<path
   d="M 477.884,606.816 H 128.933 c -32.334,0 -58.64,-26.306 -58.64,-58.641 V 138.058 c 0,-32.334 26.306,-58.64 58.64,-58.64 h 50.676 c 10.493,-6.839 22.812,-12.71 36.622,-17.454 5.656,-14.751 14.676,-27.976 26.096,-38.255 C 259.312,8.42 281.004,0 303.408,0 c 22.404,0 44.097,8.42 61.081,23.709 11.419,10.278 20.439,23.502 26.096,38.255 13.813,4.746 26.133,10.617 36.622,17.454 h 50.677 c 32.334,0 58.64,26.306 58.64,58.64 v 410.119 c -10e-4,32.334 -26.306,58.639 -58.64,58.639 z M 128.933,80.418 c -31.783,0 -57.64,25.857 -57.64,57.64 v 410.118 c 0,31.783 25.857,57.641 57.64,57.641 h 348.951 c 31.782,0 57.64,-25.857 57.64,-57.641 V 138.057 c 0,-31.783 -25.857,-57.64 -57.64,-57.64 H 426.91 l -0.125,-0.082 C 416.282,73.472 403.92,67.584 390.039,62.833 l -0.222,-0.076 -0.083,-0.219 C 384.139,47.845 375.178,34.675 363.819,24.452 347.02,9.329 325.565,1 303.408,1 281.251,1 259.796,9.329 242.996,24.452 231.637,34.677 222.676,47.847 217.082,62.538 l -0.083,0.219 -0.222,0.076 c -13.877,4.749 -26.24,10.638 -36.746,17.502 l -0.125,0.082 h -50.973 z m 348.951,483.559 h -348.95 c -8.712,0 -15.8,-7.088 -15.8,-15.801 V 138.057 c 0,-8.712 7.088,-15.8 15.8,-15.8 h 16.809 l -0.147,0.616 c -0.509,2.132 -0.892,4.289 -1.137,6.409 -1.153,9.987 0.474,20.108 4.708,29.27 4.223,9.144 10.855,16.928 19.179,22.512 8.997,6.036 19.528,9.226 30.457,9.226 h 209.215 c 10.928,0 21.46,-3.19 30.456,-9.227 8.324,-5.584 14.957,-13.369 19.18,-22.512 4.232,-9.162 5.86,-19.283 4.707,-29.271 -0.245,-2.118 -0.627,-4.274 -1.137,-6.408 l -0.147,-0.616 h 16.809 c 8.712,0 15.8,7.088 15.8,15.8 v 410.119 c -0.002,8.714 -7.09,15.802 -15.802,15.802 z m -348.95,-440.72 c -8.161,0 -14.8,6.639 -14.8,14.8 v 410.119 c 0,8.161 6.639,14.801 14.8,14.801 h 348.95 c 8.161,0 14.8,-6.64 14.8,-14.801 V 138.057 c 0,-8.161 -6.639,-14.8 -14.8,-14.8 h -15.545 c 0.447,1.971 0.788,3.956 1.015,5.909 1.174,10.171 -0.483,20.478 -4.793,29.805 -4.301,9.31 -11.054,17.236 -19.531,22.923 -9.161,6.147 -19.886,9.396 -31.013,9.396 H 198.802 c -11.127,0 -21.852,-3.249 -31.014,-9.396 -8.477,-5.687 -15.23,-13.613 -19.53,-22.923 -4.31,-9.329 -5.967,-19.635 -4.792,-29.804 0.226,-1.956 0.567,-3.941 1.014,-5.911 h -15.546 z m 279.082,25.194 H 198.801 c -5.066,0 -9.531,-2.852 -11.652,-7.444 -2.135,-4.622 -1.406,-9.909 1.904,-13.797 1.375,-1.614 2.953,-3.237 4.692,-4.822 10.89,-9.929 27.733,-18.099 48.71,-23.626 5.579,-1.471 9.87,-5.983 10.931,-11.496 0.482,-2.502 1.143,-5.027 1.963,-7.505 7.315,-22.083 26.629,-36.92 48.06,-36.92 21.431,0 40.744,14.837 48.06,36.92 0.821,2.48 1.482,5.006 1.964,7.505 1.061,5.514 5.351,10.026 10.93,11.497 20.979,5.528 37.822,13.698 48.71,23.626 1.736,1.583 3.314,3.205 4.692,4.822 3.311,3.888 4.04,9.174 1.905,13.796 -2.122,4.591 -6.588,7.444 -11.654,7.444 z M 303.408,43.84 c -20.999,0 -39.931,14.562 -47.11,36.235 -0.807,2.437 -1.457,4.92 -1.93,7.38 -1.134,5.888 -5.709,10.706 -11.658,12.274 -20.821,5.486 -37.52,13.577 -48.291,23.398 -1.708,1.557 -3.257,3.149 -4.604,4.731 -3.055,3.587 -3.728,8.465 -1.758,12.729 1.956,4.233 6.073,6.863 10.745,6.863 h 209.215 c 4.672,0 8.79,-2.63 10.745,-6.864 1.97,-4.264 1.296,-9.142 -1.759,-12.729 -1.35,-1.585 -2.899,-3.177 -4.604,-4.731 -10.769,-9.82 -27.468,-17.911 -48.29,-23.398 -5.949,-1.567 -10.525,-6.385 -11.658,-12.274 -0.473,-2.457 -1.122,-4.939 -1.931,-7.379 C 343.339,58.401 324.407,43.84 303.408,43.84 Z"
   id="path2" />
		</g>
		<g
   id="g4">
			<path
   d="m 303.408,109.265 c 11.941,0 21.622,-9.68 21.622,-21.622 0,-2.723 -0.509,-5.326 -1.427,-7.726 -3.111,-8.125 -10.978,-13.896 -20.196,-13.896 -9.218,0 -17.084,5.771 -20.194,13.896 -0.918,2.399 -1.427,5.003 -1.427,7.726 10e-4,11.942 9.681,21.622 21.622,21.622 z"
   id="path3" />
			<path
   d="m 303.408,109.765 c -12.197,0 -22.121,-9.924 -22.123,-22.122 0,-2.713 0.491,-5.373 1.46,-7.904 3.255,-8.504 11.558,-14.217 20.661,-14.217 9.103,0 17.406,5.713 20.663,14.217 0.969,2.532 1.46,5.191 1.46,7.904 10e-4,12.198 -9.923,22.122 -22.121,22.122 z m -0.001,-43.244 c -8.691,0 -16.619,5.455 -19.728,13.575 -0.925,2.417 -1.394,4.956 -1.394,7.547 10e-4,11.646 9.477,21.122 21.123,21.122 11.646,0 21.122,-9.475 21.122,-21.122 0,-2.59 -0.469,-5.129 -1.394,-7.547 -3.109,-8.119 -11.037,-13.575 -19.729,-13.575 z"
   id="path4" />
		</g>
		<g
   id="g6">
			<path
   d="M 187.724,278.191 H 296.66 c 11.83,0 21.42,-9.59 21.42,-21.42 0,-11.83 -9.591,-21.42 -21.42,-21.42 H 187.724 c -11.83,0 -21.42,9.59 -21.42,21.42 0,11.83 9.59,21.42 21.42,21.42 z"
   id="path5" />
			<path
   d="M 296.66,278.691 H 187.724 c -12.087,0 -21.92,-9.833 -21.92,-21.92 0,-12.087 9.833,-21.92 21.92,-21.92 H 296.66 c 12.087,0 21.92,9.833 21.92,21.92 0,12.087 -9.833,21.92 -21.92,21.92 z m -108.936,-42.84 c -11.535,0 -20.92,9.385 -20.92,20.92 0,11.535 9.385,20.92 20.92,20.92 H 296.66 c 11.536,0 20.92,-9.385 20.92,-20.92 0,-11.536 -9.385,-20.92 -20.92,-20.92 z"
   id="path6" />
		</g>
		<g
   id="g8">
			<path
   d="m 419.094,350.871 h -231.37 c -11.83,0 -21.42,9.59 -21.42,21.42 0,11.83 9.59,21.42 21.42,21.42 h 231.37 c 11.83,0 21.42,-9.59 21.42,-21.42 0,-11.83 -9.59,-21.42 -21.42,-21.42 z"
   id="path7" />
			<path
   d="m 419.094,394.211 h -231.37 c -12.087,0 -21.92,-9.833 -21.92,-21.92 0,-12.087 9.833,-21.92 21.92,-21.92 h 231.37 c 12.087,0 21.92,9.833 21.92,21.92 0,12.087 -9.833,21.92 -21.92,21.92 z m -231.37,-42.84 c -11.535,0 -20.92,9.385 -20.92,20.92 0,11.535 9.385,20.92 20.92,20.92 h 231.37 c 11.535,0 20.92,-9.385 20.92,-20.92 0,-11.535 -9.385,-20.92 -20.92,-20.92 z"
   id="path8" />
		</g>
		<g
   id="g10">
			<path
   d="M 352.891,466.855 H 187.724 c -11.83,0 -21.42,9.59 -21.42,21.42 0,11.83 9.59,21.42 21.42,21.42 h 165.167 c 11.83,0 21.42,-9.59 21.42,-21.42 0,-11.83 -9.59,-21.42 -21.42,-21.42 z"
   id="path9" />
			<path
   d="M 352.891,510.195 H 187.724 c -12.087,0 -21.92,-9.833 -21.92,-21.92 0,-12.087 9.833,-21.92 21.92,-21.92 h 165.167 c 12.087,0 21.92,9.833 21.92,21.92 0,12.087 -9.833,21.92 -21.92,21.92 z m -165.167,-42.84 c -11.535,0 -20.92,9.385 -20.92,20.92 0,11.535 9.385,20.92 20.92,20.92 h 165.167 c 11.535,0 20.92,-9.385 20.92,-20.92 0,-11.535 -9.385,-20.92 -20.92,-20.92 z"
   id="path10" />
		</g>
	</g>
</g>
</svg>
