<?xml version="1.0" encoding="UTF-8" standalone="no"?>
<!-- Created with Inkscape (http://www.inkscape.org/) -->

<svg
   version="1.1"
   id="svg1"
   width="512"
   height="512"
   viewBox="0 0 512 512"
   xmlns:xlink="http://www.w3.org/1999/xlink"
   xmlns="http://www.w3.org/2000/svg"
   xmlns:svg="http://www.w3.org/2000/svg">
  <defs
     id="defs1">
    <linearGradient
       id="linearGradient3">
      <stop
         style="stop-color:#ba8a6a;stop-opacity:1;"
         offset="0"
         id="stop3" />
      <stop
         style="stop-color:#ba8a6a;stop-opacity:1;"
         offset="1"
         id="stop4" />
    </linearGradient>
    <linearGradient
       xlink:href="#linearGradient3"
       id="linearGradient4"
       x1="0.78125"
       y1="256.25"
       x2="514.84375"
       y2="260.9375"
       gradientUnits="userSpaceOnUse" />
  </defs>
  <g
     id="g1">
    <path
       style="fill:url(#linearGradient4);fill-opacity:1"
       d="m 470.0943,512.68762 c -1.6841,-0.43758 -5.3096,-2.01894 -8.0568,-3.51413 C 458.3512,507.16712 397.68068,447.06855 230.43962,279.75873 42.309138,91.550898 3.3612379,52.128712 1.0369479,47.5625 c -2.4068,-4.728309 -2.80266,-6.692613 -2.8214,-14 -0.02,-7.783855 0.26449,-9.030907 3.37617,-14.801387 3.78399,-7.017254 6.92147,-10.0476089 14.4570901,-13.9634579 4.35553,-2.263334 6.3588,-2.654059 13.60744,-2.654059 13.42056,0 14.852,1.001296 46.59214,32.5913919 l 27.092132,26.964065 2.90786,-2.436417 C 112.25282,54.231693 126.99355,45.282439 137.88351,40.056608 214.90898,3.0939541 308.1705,28.045102 356.56478,98.5625 c 8.20824,11.96059 14.32828,23.68248 19.54855,37.44197 2.47218,6.5161 5.20801,12.63546 6.07962,13.59859 0.87162,0.96312 5.71993,3.18439 10.77403,4.93614 42.56222,14.75209 77.19612,44.90625 97.64322,85.01346 30.474,59.77515 23.6565,132.07251 -17.1738,182.12173 l -4.5782,5.61189 16.8735,16.85154 c 20.9778,20.95059 23.3871,24.80597 23.3871,37.42468 0,7.7627 -0.2948,9.04659 -3.398,14.80139 -3.7845,7.01825 -6.9868,10.11202 -14.3048,13.82038 -5.3557,2.71391 -15.7945,3.93952 -21.3217,2.50335 z M 427.9878,375.3125 c 27.5584,-38.85736 22.2279,-95.73109 -12.38801,-132.17258 -13.03741,-13.72501 -25.65505,-21.7035 -46.04033,-29.1126 -13.47137,-4.89621 -20.32906,-8.62496 -28.23077,-15.34998 -10.84632,-9.23113 -17.98894,-20.30708 -23.83157,-36.95525 -6.31922,-18.00618 -14.82317,-31.14495 -28.80299,-44.50119 -33.60501,-32.106028 -82.65864,-39.440961 -124.53788,-18.622 -5.5,2.73415 -11.125,5.85481 -12.5,6.93478 l -2.5,1.96359 136.99863,137.03262 c 75.34925,75.36793 137.08901,137.03261 137.19948,137.03261 0.11046,0 2.19554,-2.8125 4.63344,-6.25 z M 113.65625,491.53657 c -53.613282,-4.89229 -99.549212,-44.3584 -112.88967212,-96.9898 -6.90775998,-27.25283 -1.33304,-61.89791 14.10059012,-87.63051 7.63038,-12.72219 11.42157,-17.05136 31.95195,-36.48611 4.65442,-4.40603 4.82493,-6.62313 1.30294,-16.9425 -6.81055,-19.95478 -7.99127,-30.77297 -4.40482,-40.35862 6.05427,-16.18146 26.34417,-24.58227 41.99609,-17.388 10.2338,4.70388 15.767332,11.42347 18.587202,22.57119 0.80001,3.16266 3.34482,11.37528 5.65514,18.25028 4.17136,12.41306 4.20048,12.60085 4.18555,27 -0.0138,13.274 -0.25117,15.17641 -2.80777,22.5 -4.1318,11.83586 -9.96262,20.97121 -18.509822,29 -17.5955,16.52827 -21.67824,21.05149 -24.883,27.56759 -11.37866,23.13572 -7.13293,46.9643 11.74011,65.88979 7.69036,7.71173 16.42977,13.05912 27.475512,16.81148 l 8,2.71769 100.5,0.50672 100.5,0.50673 5,2.6636 c 6.00474,3.19885 11.44776,8.71986 14.62681,14.8364 1.93964,3.73189 2.34179,6.03623 2.35603,13.5 0.0143,7.52449 -0.38006,9.80709 -2.40575,13.92291 -3.23459,6.57209 -9.04798,12.20301 -15.92913,15.42913 l -5.64796,2.64796 -96,0.12486 c -52.8,0.0687 -99.825,-0.22418 -104.5,-0.65079 z"
       id="path3" />
  </g>
</svg>
