<?xml version="1.0" encoding="UTF-8" standalone="no"?>
<svg
   id="Layer_1"
   data-name="Layer 1"
   viewBox="0 0 24 24"
   width="512"
   height="512"
   version="1.1"
   sodipodi:docname="play-circle.svg"
   inkscape:version="1.4 (e7c3feb100, 2024-10-09)"
   xmlns:inkscape="http://www.inkscape.org/namespaces/inkscape"
   xmlns:sodipodi="http://sodipodi.sourceforge.net/DTD/sodipodi-0.dtd"
   xmlns:xlink="http://www.w3.org/1999/xlink"
   xmlns="http://www.w3.org/2000/svg"
   xmlns:svg="http://www.w3.org/2000/svg">
  <defs
     id="defs1">
    <linearGradient
       id="linearGradient10"
       inkscape:collect="always">
      <stop
         style="stop-color:#A59599;stop-opacity:1;"
         offset="0"
         id="stop9" />
      <stop
         style="stop-color:#DBB6BF;stop-opacity:1"
         offset="1"
         id="stop10" />
    </linearGradient>
  </defs>
  <sodipodi:namedview
     id="namedview1"
     pagecolor="#505050"
     bordercolor="#ffffff"
     borderopacity="1"
     inkscape:showpageshadow="0"
     inkscape:pageopacity="0"
     inkscape:pagecheckerboard="1"
     inkscape:deskcolor="#505050"
     inkscape:zoom="1.1171875"
     inkscape:cx="49.230769"
     inkscape:cy="240.33566"
     inkscape:window-width="2211"
     inkscape:window-height="1351"
     inkscape:window-x="0"
     inkscape:window-y="0"
     inkscape:window-maximized="1"
     inkscape:current-layer="Layer_1" />
  <path
     d="m12,0C5.383,0,0,5.383,0,12s5.383,12,12,12,12-5.383,12-12S18.617,0,12,0Zm0,21c-4.963,0-9-4.038-9-9S7.037,3,12,3s9,4.038,9,9-4.037,9-9,9Zm3.914-7.999l-5.202,2.85c-.766.431-1.712-.123-1.712-1.001v-5.699c0-.879.946-1.432,1.712-1.001l5.202,2.85c.781.439.781,1.563,0,2.002Z"
     id="path1"
     style="fill-opacity:1;fill:url(#linearGradient10)" />
  <path
     style="fill:url(#linearGradient10);stroke-width:0.895105;fill-opacity:1"
     d="M 233.17483,510.55704 C 182.63134,505.82976 134.95738,486.34123 94.881119,454.02428 82.352438,443.92132 62.218008,423.10585 52.684273,410.40013 24.356006,372.64674 7.9304629,332.03409 2.2300393,285.65053 c -1.86798647,-15.19955 -1.86798647,-44.10151 0,-59.30106 C 9.2156948,169.50815 33.054134,119.47004 72.473664,78.904456 93.80719,56.9507 116.00307,40.570261 142.08288,27.53324 c 72.18037,-36.0822053 155.584,-36.1252411 227.59544,-0.117437 26.46577,13.233652 48.50427,29.480869 69.81818,51.471357 24.34258,25.11528 42.12741,52.63254 54.44336,84.23648 11.94886,30.66195 17.20664,59.04185 17.20664,92.87636 0,41.71386 -8.75617,78.78569 -27.1697,115.03105 -15.61804,30.74268 -39.32598,60.3333 -65.82321,82.15598 -46.10516,37.97145 -104.71163,58.79236 -163.9438,58.2437 -7.13846,-0.0661 -16.6042,-0.45929 -21.03496,-0.87369 z m 48.06604,-63.88854 c 63.94772,-8.41722 119.10227,-48.21932 147.59353,-106.51042 26.01243,-53.21958 26.01243,-115.09658 0,-168.31616 C 400.26543,113.39184 345.57694,73.960857 281.06294,65.297111 262.18982,62.762594 233.21619,63.961404 214.82517,68.037758 119.98841,89.058256 55.153329,177.87909 64.503923,273.97041 c 8.656101,88.95435 77.278047,160.66773 165.198627,172.64089 12.24104,1.667 39.08193,1.69679 51.53832,0.0572 z"
     id="path2"
     transform="scale(0.046875)" />
  <path
     style="fill:url(#linearGradient10);stroke-width:0.895105;fill-opacity:1"
     d="m 208.33385,339.31032 c -4.19768,-1.498 -8.89732,-5.03924 -11.45547,-8.63184 -4.40427,-6.18521 -4.43083,-6.63277 -4.43083,-74.65828 0,-70.00749 -0.0522,-69.27604 5.41082,-75.88123 5.91681,-7.15391 17.09111,-10.59666 25.44524,-7.83955 4.63837,1.5308 118.45292,63.98073 121.0486,66.41925 3.84721,3.61426 6.9682,11.35441 6.9682,17.28133 0,5.93314 -3.12184,13.66787 -6.97913,17.2916 -2.40932,2.26343 -115.85408,64.63904 -120.47485,66.24098 -3.99175,1.38386 -11.32601,1.27891 -15.53258,-0.22226 z"
     id="path3"
     transform="scale(0.046875)" />
</svg>
