<?xml version="1.0" encoding="UTF-8" standalone="no"?>
<!-- Created with Inkscape (http://www.inkscape.org/) -->

<svg
   width="512"
   height="512"
   viewBox="0 0 135.46667 135.46667"
   version="1.1"
   id="svg1"
   xml:space="preserve"
   xmlns:xlink="http://www.w3.org/1999/xlink"
   xmlns="http://www.w3.org/2000/svg"
   xmlns:svg="http://www.w3.org/2000/svg"><defs
     id="defs1"><linearGradient
       id="linearGradient6"><stop
         style="stop-color:#b06d75;stop-opacity:1;"
         offset="0"
         id="stop6" /><stop
         style="stop-color:#b06d75;stop-opacity:1"
         offset="1"
         id="stop7" /></linearGradient><linearGradient
       xlink:href="#linearGradient6"
       id="linearGradient7"
       x1="32.757633"
       y1="184.83099"
       x2="118.86229"
       y2="184.83099"
       gradientUnits="userSpaceOnUse"
       gradientTransform="translate(-3.1153846,-73.990385)" /></defs><g
     id="layer1"
     transform="matrix(0.93754477,0,0,0.93754477,-27.803676,-38.565233)"><path
       style="fill:url(#linearGradient7);fill-opacity:1"
       d="m 101.77392,185.09868 c -2.107335,-0.61376 -3.813395,-1.4745 -5.671615,-2.86144 -0.86602,-0.64638 -7.929824,-8.60642 -17.753499,-20.00601 -16.315207,-18.93249 -16.315207,-18.93249 -22.491942,-18.93249 -6.651098,0 -8.825078,-0.27679 -12.025569,-1.53105 -6.900855,-2.70442 -12.217244,-9.05253 -13.735001,-16.40046 -0.624644,-3.0241 -0.621573,-20.95887 0.0041,-23.98799 1.617475,-7.830705 7.243412,-14.147675 15.032218,-16.878645 2.446385,-0.85777 2.478972,-0.86103 9.694505,-0.97109 7.239868,-0.11042 7.239868,-0.11042 23.407678,-18.88989 8.892304,-10.3287 16.80377,-19.28215 17.58105,-19.89655 3.02672,-2.39249 6.486125,-3.60878 10.264185,-3.60878 3.21496,0 4.92968,0.40209 7.92157,1.85756 4.45537,2.16741 7.46297,5.78298 8.77976,10.55455 0.57685,2.09029 0.58256,2.53379 0.58256,45.23735 0,41.836065 -0.0161,43.157695 -0.53698,44.173455 -1.98201,3.86486 -6.94394,4.27727 -9.7373,0.80931 -0.87349,-1.08444 -0.87349,-1.08444 -1.01461,-44.026665 -0.14086,-42.86849 -0.14212,-42.94416 -0.73069,-44.07112 -0.32426,-0.62088 -1.12895,-1.50988 -1.7882,-1.97555 -1.06399,-0.75157 -1.4271,-0.84667 -3.23283,-0.84667 -1.42652,0 -2.24952,0.14108 -2.75494,0.47224 -0.39641,0.25974 -8.477495,9.48137 -17.957983,20.49252 -14.671214,17.03994 -17.409315,20.08911 -18.393121,20.48276 -0.953208,0.38139 -2.305381,0.46347 -7.711831,0.46808 -7.120185,0.006 -9.750833,0.26034 -11.724127,1.13322 -2.754958,1.21865 -5.237179,4.02351 -6.110291,6.904525 -0.620067,2.04603 -0.625559,19.10316 -0.0068,21.14283 0.976894,3.22028 3.847062,6.23241 6.933904,7.27686 0.591499,0.20014 4.185502,0.39118 9.290255,0.49382 7.850188,0.15785 8.392219,0.20272 9.493098,0.78586 0.882387,0.46739 5.388878,5.52218 18.451443,20.69638 12.657048,14.70314 17.536143,20.18334 18.226173,20.47165 2.01257,0.84091 4.63891,0.37196 6.27798,-1.12097 0.96141,-0.8757 1.15855,-1.35455 1.60646,-3.90214 0.43593,-2.47943 1.1037,-3.72784 2.50495,-4.68302 2.88215,-1.96464 6.96988,-0.8293 8.48122,2.35562 0.51079,1.0764 0.57035,3.95029 0.12659,6.10755 -0.46226,2.24712 -2.29284,5.80971 -3.91566,7.62044 -1.88519,2.10349 -5.12866,4.10863 -7.9836,4.93554 -2.80509,0.81246 -6.82583,0.8632 -9.3831,0.11841 z m 36.12445,-52.40286 c -1.17906,-0.61197 -2.29389,-1.72912 -2.8092,-2.81506 -0.55626,-1.17223 -0.56038,-3.51888 -0.008,-4.83972 0.26077,-0.62412 2.51773,-3.13146 5.77933,-6.4205 5.35147,-5.39648 5.35147,-5.39648 -0.0332,-10.7497 -2.96158,-2.94427 -5.56228,-5.76188 -5.77933,-6.26137 -0.46751,-1.07582 -0.51633,-3.389015 -0.0951,-4.506255 0.40626,-1.07755 1.90076,-2.61101 3.00752,-3.08591 1.31297,-0.56339 3.57721,-0.4905 4.81808,0.15508 0.5759,0.29963 3.39139,2.89921 6.25664,5.77684 5.20954,5.232085 5.20954,5.232085 10.72444,-0.2188 6.05885,-5.9885 6.47042,-6.25463 9.35048,-6.04631 1.31899,0.0954 1.87693,0.29544 2.72175,0.97581 2.16821,1.74613 2.90282,4.38011 1.89886,6.808435 -0.27604,0.66768 -2.40474,3.025 -5.85339,6.48204 -5.41959,5.43278 -5.41959,5.43278 -0.0173,10.86556 2.97125,2.98803 5.60528,5.83922 5.85339,6.33598 0.88728,1.77646 0.39867,4.69988 -1.04402,6.24652 -1.45258,1.55725 -4.29557,2.20504 -6.31815,1.43961 -0.43697,-0.16536 -3.30422,-2.79791 -6.37167,-5.8501 -5.57719,-5.54944 -5.57719,-5.54944 -11.00667,-0.15045 -2.98621,2.96944 -5.83592,5.60198 -6.33269,5.8501 -1.14946,0.57411 -3.64259,0.57842 -4.74123,0.008 z"
       id="path6" /></g></svg>
