<?xml version="1.0" encoding="UTF-8" standalone="no"?>
<!-- Created with Inkscape (http://www.inkscape.org/) -->

<svg
   width="512"
   height="512"
   viewBox="0 0 135.46667 135.46667"
   version="1.1"
   id="svg1"
   xml:space="preserve"
   xmlns:xlink="http://www.w3.org/1999/xlink"
   xmlns="http://www.w3.org/2000/svg"
   xmlns:svg="http://www.w3.org/2000/svg"><defs
     id="defs1"><linearGradient
       id="linearGradient5"><stop
         style="stop-color:#eca9d9;stop-opacity:1;"
         offset="0"
         id="stop5" /><stop
         style="stop-color:#eca9d9;stop-opacity:1"
         offset="1"
         id="stop6" /></linearGradient><linearGradient
       xlink:href="#linearGradient5"
       id="linearGradient6"
       x1="38.541019"
       y1="186.08969"
       x2="127.47116"
       y2="186.08969"
       gradientUnits="userSpaceOnUse"
       gradientTransform="translate(1.0384616,-45.173077)" /></defs><g
     id="layer1"
     transform="matrix(0.93754489,0,0,0.93754489,-26.483514,-68.503576)"><path
       style="fill:url(#linearGradient6);fill-opacity:1"
       d="m 111.68515,217.03136 c -2.10733,-0.61376 -3.81339,-1.4745 -5.67162,-2.86144 -0.86602,-0.64638 -7.929819,-8.60642 -17.753494,-20.00601 -16.315207,-18.93249 -16.315207,-18.93249 -22.491942,-18.93249 -6.651098,0 -8.825078,-0.27679 -12.025569,-1.53105 -6.900855,-2.70442 -12.217244,-9.05253 -13.735001,-16.40046 -0.624644,-3.0241 -0.621573,-20.95887 0.0041,-23.98799 1.617475,-7.8307 7.243412,-14.14767 15.032218,-16.87864 2.446385,-0.85777 2.478972,-0.86103 9.694505,-0.97109 7.239868,-0.11042 7.239868,-0.11042 23.407678,-18.889877 8.892304,-10.32871 16.803765,-19.28216 17.581045,-19.89656 3.02673,-2.39249 6.48613,-3.60877 10.26419,-3.60877 3.21496,0 4.92968,0.40209 7.92157,1.85756 4.45537,2.16741 7.46297,5.78298 8.77976,10.55454 0.57685,2.0903 0.58256,2.53379 0.58256,45.237347 0,41.83606 -0.0161,43.15769 -0.53698,44.17345 -1.98201,3.86486 -6.94394,4.27727 -9.7373,0.80931 -0.87349,-1.08444 -0.87349,-1.08444 -1.01461,-44.02666 -0.14086,-42.868477 -0.14212,-42.944157 -0.73069,-44.071107 -0.32426,-0.62089 -1.12895,-1.50989 -1.7882,-1.97555 -1.06399,-0.75157 -1.4271,-0.84667 -3.23283,-0.84667 -1.42652,0 -2.24952,0.14107 -2.75494,0.47224 -0.39641,0.25974 -8.4775,9.48136 -17.957983,20.492507 -14.671214,17.03994 -17.409315,20.08911 -18.393121,20.48276 -0.953208,0.38139 -2.305381,0.46347 -7.711831,0.46808 -7.120185,0.006 -9.750833,0.26034 -11.724127,1.13322 -2.754958,1.21865 -5.237179,4.02351 -6.110291,6.90452 -0.620067,2.04603 -0.625559,19.10316 -0.0068,21.14283 0.976894,3.22028 3.847062,6.23241 6.933904,7.27686 0.591499,0.20014 4.185502,0.39118 9.290255,0.49382 7.850188,0.15785 8.392219,0.20272 9.493098,0.78586 0.882387,0.46739 5.388878,5.52218 18.451443,20.69638 12.657043,14.70314 17.536133,20.18334 18.226163,20.47165 2.01257,0.84091 4.63891,0.37196 6.27798,-1.12097 0.96141,-0.8757 1.15855,-1.35455 1.60646,-3.90214 0.43593,-2.47943 1.1037,-3.72784 2.50495,-4.68302 2.88215,-1.96464 6.96988,-0.8293 8.48122,2.35562 0.51079,1.0764 0.57035,3.95029 0.12659,6.10755 -0.46226,2.24712 -2.29284,5.80971 -3.91566,7.62044 -1.88519,2.10349 -5.12866,4.10863 -7.9836,4.93554 -2.80509,0.81246 -6.82583,0.8632 -9.3831,0.11841 z m 37.84461,-53.16403 c -0.60613,-0.3467 -1.48942,-1.11133 -1.96285,-1.69919 -0.71241,-0.88459 -0.88064,-1.38054 -0.97594,-2.87724 -0.10641,-1.67108 -0.0176,-2.01855 1.16897,-4.57561 1.75275,-3.77707 2.1673,-5.5876 2.16149,-9.44017 -0.006,-3.86732 -0.53643,-6.14938 -2.24099,-9.63838 -1.11556,-2.28341 -1.19718,-2.60434 -1.09008,-4.28627 0.0957,-1.50311 0.26306,-2.00006 0.96606,-2.86863 1.55675,-1.92341 2.16403,-2.21598 4.59973,-2.21598 1.96779,0 2.29413,0.0806 3.23597,0.79895 1.36089,1.038 2.22493,2.37274 3.59862,5.55905 1.69774,3.93795 2.24646,6.52811 2.41972,11.422 0.21697,6.12876 -0.54485,10.00477 -2.99537,15.24 -1.25091,2.67241 -2.24132,3.91707 -3.71531,4.66904 -1.50242,0.76648 -3.74323,0.72853 -5.17002,-0.0876 z"
       id="path5" /></g></svg>
