<?xml version="1.0" encoding="UTF-8" standalone="no"?>
<!-- Created with Inkscape (http://www.inkscape.org/) -->

<svg
   width="512"
   height="512"
   viewBox="0 0 135.46666 135.46667"
   version="1.1"
   id="svg1"
   xml:space="preserve"
   xmlns:xlink="http://www.w3.org/1999/xlink"
   xmlns="http://www.w3.org/2000/svg"
   xmlns:svg="http://www.w3.org/2000/svg"><defs
     id="defs1"><linearGradient
       id="linearGradient2"><stop
         style="stop-color:#ff7770;stop-opacity:1;"
         offset="0"
         id="stop2" /><stop
         style="stop-color:#ff7770;stop-opacity:1"
         offset="1"
         id="stop3" /></linearGradient><linearGradient
       xlink:href="#linearGradient2"
       id="linearGradient3"
       x1="34.83643"
       y1="202.76146"
       x2="128.47751"
       y2="201.47127"
       gradientUnits="userSpaceOnUse"
       gradientTransform="translate(-4.4134615,-84.894231)" /></defs><g
     id="layer1"
     transform="matrix(0.93766175,0,0,0.93766175,-28.534728,-44.168968)"><path
       style="fill:url(#linearGradient3);fill-opacity:1"
       d="m 102.56193,191.06925 c -2.16643,-0.63171 -4.182382,-1.67099 -5.943362,-3.06399 -0.76693,-0.60666 -8.685282,-9.5703 -17.596337,-19.9192 -16.201927,-18.81617 -16.201927,-18.81617 -22.378009,-18.81617 -4.459857,0 -6.760291,-0.12068 -8.278447,-0.43426 -8.794101,-1.81647 -15.664876,-8.70256 -17.48751,-17.5265 -0.618812,-2.99586 -0.611205,-20.95056 0.01015,-23.95874 1.617645,-7.831521 7.248848,-14.153701 15.032218,-16.876741 2.425122,-0.84844 2.541985,-0.86068 9.719122,-1.01738 7.264486,-0.1586 7.264486,-0.1586 10.549741,-3.9686 1.80689,-2.0955 9.070093,-10.52446 16.140452,-18.73102 7.070358,-8.20655 13.49238,-15.42467 14.27117,-16.04026 3.02953,-2.39472 6.487612,-3.61095 10.266922,-3.61095 3.27088,0 4.9623,0.3976 7.95043,1.86888 3.39271,1.67048 5.98756,4.17867 7.47892,7.22915 1.98808,4.06646 1.86778,0.7699 1.78665,48.960291 -0.0732,43.48935 -0.0732,43.48935 -0.94671,44.57385 -1.43036,1.77588 -2.75424,2.39214 -4.91838,2.2895 -2.0651,-0.0979 -3.11512,-0.6661 -4.43933,-2.40206 -0.77546,-1.0166 -0.77546,-1.0166 -0.91658,-43.93644 -0.14111,-42.919831 -0.14111,-42.919831 -0.78168,-44.118961 -1.30732,-2.44725 -4.78599,-3.62562 -7.2506,-2.45609 -0.78641,0.37318 -5.425192,5.57716 -18.355595,20.5921 -14.764055,17.14419 -17.473645,20.1609 -18.464499,20.557361 -0.959849,0.38406 -2.298357,0.46562 -7.717219,0.47024 -7.120185,0.006 -9.750833,0.26034 -11.724127,1.13322 -2.754958,1.21865 -5.237179,4.02351 -6.110291,6.90452 -0.620067,2.04603 -0.625559,19.10316 -0.0068,21.14283 0.982223,3.23785 3.839456,6.20713 7.028295,7.30393 0.486118,0.1672 4.545561,0.37324 9.195864,0.46675 7.870674,0.15827 8.389859,0.20146 9.502482,0.79064 0.894445,0.47365 5.311847,5.4251 18.40458,20.62966 12.053188,13.99734 17.51909,20.14472 18.19795,20.46686 1.48525,0.7048 3.70403,0.59863 5.14564,-0.24621 1.72467,-1.01072 2.33323,-2.02968 2.80093,-4.68986 0.23615,-1.34317 0.66493,-2.69106 1.02167,-3.21169 2.28205,-3.33043 7.26405,-3.28609 9.5741,0.0852 1.40928,2.0567 1.02644,6.72902 -0.87178,10.63965 -2.24008,4.61491 -6.04516,7.69792 -11.12987,9.01781 -2.2613,0.587 -6.57773,0.53904 -8.76015,-0.0973 z m 47.55952,-25.9999 c -2.41686,-1.12825 -3.39884,-2.66095 -3.37991,-5.27544 0.0149,-2.06428 0.38747,-2.74374 3.31629,-6.04869 8.95491,-10.10491 13.32299,-21.42696 13.32299,-34.53318 0,-8.05394 -1.72281,-15.46994 -5.2041,-22.401621 -2.48472,-4.94738 -4.52653,-7.91845 -8.36317,-12.16942 -2.64822,-2.93422 -3.08384,-3.75108 -3.08384,-5.78278 0,-2.63613 1.43321,-4.63363 3.92267,-5.46713 3.15849,-1.0575 5.33614,0.30963 10.43755,6.55272 5.95288,7.28511 10.60021,17.0177 12.5522,26.287191 1.07478,5.10385 1.40207,9.09379 1.23475,15.0526 -0.43181,15.37813 -5.81438,28.68048 -16.3822,40.48655 -3.18967,3.5634 -5.69374,4.55005 -8.37323,3.2992 z m -9.45952,-26.99207 c -2.22575,-1.17132 -3.24555,-2.8218 -3.24555,-5.2527 0,-1.18188 0.24519,-2.01269 1.14019,-3.86344 1.73245,-3.58248 2.24647,-5.78066 2.24647,-9.60681 0,-3.82527 -0.56333,-6.23528 -2.27771,-9.7444 -1.64587,-3.36888 -1.5286,-5.6892 0.39002,-7.71647 1.1564,-1.22188 2.36631,-1.73024 4.11803,-1.73024 2.9018,0 4.38099,1.24311 6.29152,5.28739 2.10967,4.46582 2.77677,7.28104 2.96032,12.49261 0.2231,6.33474 -0.50461,10.07609 -2.99169,15.38111 -1.25333,2.67339 -2.2437,3.91744 -3.71697,4.66904 -1.32107,0.67396 -3.71571,0.71485 -4.91463,0.0839 z"
       id="path1" /></g></svg>
